<?xml version="1.0" encoding="utf-8"?>
<!-- Generator: Adobe Illustrator 26.5.0, SVG Export Plug-In . SVG Version: 6.00 Build 0)  -->
<svg version="1.1" id="Layer_1" xmlns="http://www.w3.org/2000/svg" xmlns:xlink="http://www.w3.org/1999/xlink" x="0px" y="0px"
	 viewBox="0 0 476.3 250" style="enable-background:new 0 0 476.3 250;" xml:space="preserve">
<style type="text/css">
	.st0{fill:#FFFFFF;}
	.st1{fill:#95C843;}
	.st2{fill:#FF7F3F;}
</style>
<g>
	<g>
		<path class="st0" d="M0,12.4C0,4.6,6.5,0,16.8,0s16.9,4.6,16.9,12.4v38.4c0,7.7-6.5,11.6-16.9,11.6S0,58.5,0,50.8V12.4z
			 M21.6,14.4c0-2.5-1.8-4.4-4.9-4.4S12,11.8,12,14.3V48c0,2.5,1.8,4.4,4.8,4.4s4.8-1.8,4.8-4.3L21.6,14.4L21.6,14.4z"/>
		<path class="st0" d="M62.4,1.2h12.1v49.5c0,7.7-6.5,11.6-16.9,11.6s-16.9-3.8-16.9-11.6V1.2h12.1V48c0,2.5,1.8,4.4,4.8,4.4
			s4.8-1.8,4.8-4.3L62.4,1.2L62.4,1.2z"/>
		<path class="st0" d="M104.5,61.1c-0.8-1.9-0.8-7.1-0.8-10.9v-9.7c0-3.3-0.9-5.3-4-5.3h-5.6v25.9H82V1.2h23.5
			c10,0,10.2,7.1,10.2,13.3v1.7c0,5.9-0.2,13.2-10.1,14.2c9.9,0.8,10.1,7.4,10.1,13.2v9c0,3.3,0.1,6.9,0.7,8.5L104.5,61.1
			L104.5,61.1z M103.7,16.4c0-3.3-0.9-5.2-4-5.2h-5.6v14h5.6c3,0,4-1.9,4-5.2V16.4L103.7,16.4z"/>
	</g>
	<g>
		<path class="st0" d="M168.9,50.8c0,7.7-6.6,11.6-16.9,11.6s-16.8-3.8-16.8-11.6V39.3h12.1V48c0,2.5,1.7,4.3,4.7,4.3
			s4.9-1.9,4.9-4.4V43c0-9.8-21.6-7.4-21.6-22.9v-7.8c0-7.7,6.5-12.4,16.8-12.4S169,4.5,169,12.3V21h-12.1v-6.7
			c0-2.5-1.8-4.4-4.9-4.4s-4.7,1.8-4.7,4.3v3.5c0,10.6,21.6,5.2,21.6,23.4C168.9,41.3,168.9,50.8,168.9,50.8z"/>
		<path class="st0" d="M180.5,61.1V11.2h-8.1v-10h28.4v10h-8.2v49.9L180.5,61.1L180.5,61.1z"/>
		<path class="st0" d="M205,12.4C205,4.6,211.5,0,221.8,0s16.9,4.6,16.9,12.4v38.4c0,7.7-6.5,11.6-16.9,11.6S205,58.5,205,50.8V12.4
			L205,12.4z M226.7,14.4c0-2.5-1.8-4.4-4.9-4.4s-4.7,1.8-4.7,4.3V48c0,2.5,1.8,4.4,4.8,4.4s4.8-1.8,4.8-4.3L226.7,14.4L226.7,14.4z
			"/>
		<path class="st0" d="M268.4,61.1c-0.8-1.9-0.8-7.1-0.8-10.9v-9.7c0-3.3-0.9-5.3-4-5.3H258v25.9h-12V1.2h23.5
			c10,0,10.2,7.1,10.2,13.3v1.7c0,5.9-0.2,13.2-10.1,14.2c9.9,0.8,10.1,7.4,10.1,13.2v9c0,3.3,0.1,6.9,0.6,8.5L268.4,61.1
			L268.4,61.1z M267.6,16.4c0-3.3-0.9-5.2-4-5.2H258v14h5.6c3,0,4-1.9,4-5.2V16.4L267.6,16.4z"/>
		<path class="st0" d="M293.4,61.1V42.5L281.9,1.2h11.5l5.9,26l5.9-26h11.6L305.4,43v18.2h-12V61.1z"/>
	</g>
	<g>
		<path class="st0" d="M49.3,139.4V79.5h23.1c10,0,10.2,7.1,10.2,13.3v1.7c0,5.9-0.2,13.2-9.8,14.2c9.9,0.8,10.1,7.4,10.1,13.2v4.1
			c0,6.2-0.2,13.3-10.2,13.3C72.8,139.4,49.3,139.4,49.3,139.4z M70.6,94.7c0-3.3-0.9-5.2-4-5.2h-5.2v14h5.2c3,0,4-1.9,4-5.2V94.7
			L70.6,94.7z M71,118.8c0-3.3-0.9-5.3-4-5.3h-5.6v15.9H67c3,0,4-1.9,4-5.2V118.8L71,118.8z"/>
		<path class="st0" d="M89.6,139.4V79.5h26.8v10h-14.7v14H116v10h-14.2v15.9h14.7v10H89.6L89.6,139.4z"/>
		<path class="st0" d="M151.4,139.4l-0.8-4.4c-1.9,3.4-5.4,5.6-12.1,5.6c-8.8,0-15.8-3.8-15.8-13v-37c0-7.7,6.5-12.4,16.8-12.4
			s16.9,4.6,16.9,12.4V101h-12.1v-8.4c0-2.5-1.8-4.4-4.9-4.4s-4.7,1.8-4.7,4.3v32.2c0,4,1.8,5.9,4.9,5.9s4.7-1.8,4.7-4.3v-10.8h-4.9
			v-10h16.9v33.9H151.4L151.4,139.4z"/>
		<path class="st0" d="M163.6,139.4V79.5h12.1v59.9H163.6z"/>
		<path class="st0" d="M200,139.4l-5.8-46.9v46.9h-10.9V79.5h18.2L207,124V79.5h10.9v59.9H200L200,139.4z"/>
		<path class="st0" d="M258,129.1c0,7.7-6.6,11.6-16.9,11.6s-16.8-3.8-16.8-11.6v-11.4h12.1v8.7c0,2.5,1.7,4.3,4.7,4.3
			s4.9-1.9,4.9-4.4v-4.9c0-9.8-21.6-7.4-21.6-22.9v-7.8c0-7.7,6.5-12.4,16.8-12.4S258,82.9,258,90.7v8.8h-12v-6.7
			c0-2.5-1.8-4.4-4.9-4.4s-4.7,1.8-4.7,4.3v3.5c0,10.6,21.6,5.2,21.6,23.4V129.1z"/>
	</g>
	<g>
		<path class="st1" d="M285.7,248.1v-29.6l-18.1-65.3h18.2l9.3,41.2l9.4-41.2h18.3l-18.1,66.1v28.8L285.7,248.1L285.7,248.1z"/>
		<path class="st1" d="M327.2,170.8c0-12.3,10.3-19.6,26.6-19.6s26.8,7.3,26.8,19.6v60.8c0,12.3-10.3,18.3-26.7,18.3
			s-26.7-6.1-26.7-18.3L327.2,170.8L327.2,170.8z M361.4,174c0-4-2.9-7-7.7-7s-7.5,2.9-7.5,6.9v53.3c0,4,2.9,7,7.6,7
			s7.6-2.9,7.6-6.9V174L361.4,174z"/>
		<path class="st1" d="M426,153.2h19.1v78.5c0,12.3-10.3,18.3-26.7,18.3s-26.7-6.1-26.7-18.3v-78.5h19.1v74c0,4,2.9,7,7.6,7
			s7.6-2.9,7.6-6.9V153.2L426,153.2z"/>
		<path class="st1" d="M457.9,221.7l-2-68.5h20.4l-2,68.5H457.9L457.9,221.7z M456.6,248.1v-19.7h19.1v19.7H456.6z"/>
	</g>
	<g>
		<path class="st0" d="M307.3,139.4l-3.6-44.6l-3.5,44.6h-17.9l-5.4-59.9h12.9l3,50l3.8-50h14.2l3.8,50l3-50h13l-5.4,59.9H307.3
			L307.3,139.4z"/>
		<path class="st0" d="M336.3,139.4V79.5h12.1v59.9H336.3z"/>
		<path class="st0" d="M361.2,139.4V89.5h-8.1v-10h28.4v10h-8.2v49.9H361.2L361.2,139.4z"/>
		<path class="st0" d="M407.8,139.4v-25.9h-9.5v25.9h-12.1V79.5h12.1v24h9.5v-24h12.1v59.9H407.8L407.8,139.4z"/>
	</g>
	<g>
		<path class="st2" d="M186.7,152.9c17.1,1.1,45.2,1.1,55.3,0.9c2,0,3.7,1,3.8,2.4l0,0c-1.5,1.4-3.8,2.3-6.4,2.5l0,0H238l-47.9-2.1
			c-10.1-0.4-20.5-0.7-30.8-0.6c-6.5,0.1-13.1,0.4-19.5,0.6c-7.1,0.3-14.3,0.6-21.5,0.7c-9.5,0.1-19.2-0.3-28.5-0.7l-31.7-1.3l0.1-3
			l63.8-1c11.7-0.2,23.7-0.4,35.6,0C167.4,151.7,177.2,152.4,186.7,152.9L186.7,152.9z"/>
		<path class="st2" d="M228.7,164.9c1.7,0.1,1.2,2.4-0.6,2.4H217c-8.9,0-17.8-0.2-26.7-0.5c-15.7-0.5-39.7-0.8-57.4-0.7
			c-18.4,0.2-37.3,0.3-56-0.4c-0.8,0-1.3-0.3-1.3-0.6l0.2-2c0-0.3,0.7-0.5,1.4-0.5c45.1-0.6,90.6-0.1,135.5,1.4
			C213.6,164.1,228.7,164.9,228.7,164.9L228.7,164.9z"/>
	</g>
</g>
</svg>
