<?xml version="1.0" encoding="utf-8"?>
<!-- Generator: Adobe Illustrator 26.5.0, SVG Export Plug-In . SVG Version: 6.00 Build 0)  -->
<svg version="1.1" id="Layer_1" xmlns="http://www.w3.org/2000/svg" xmlns:xlink="http://www.w3.org/1999/xlink" x="0px" y="0px"
	 viewBox="0 0 518.81 350.05" style="enable-background:new 0 0 518.81 350.05;" xml:space="preserve">
<style type="text/css">
	.st0{fill:#FF7F3F;}
	.st1{fill:#FFFFFF;}
</style>
<path class="st0" d="M509.7,274.05c-7.45-21.59-46.03-40.16-108.64-52.28c-40.13-7.77-85.08-11.78-129.88-11.61
	c-83.87,0.32-178.42,16.54-219.93,37.72c-9.68,4.94-16.73,10.08-21.13,15.37c-13.04,6.25-21.02,12.62-21.34,19.43
	c-0.35,7.44,8.06,14.51,25.72,21.62c23.79,9.93,60.11,17.17,95.83,23.51c41.06,7.29,86.81,14.32,143.11,16.31
	c9.6,0.34,19.27,0.51,28.92,0.51c51.84,0,102.95-4.81,138.31-13.28c29.92-7.17,50.75-17.32,61.91-30.16
	C510.42,292.19,512.81,283.06,509.7,274.05z M52.62,250.55c24.06-12.27,66.17-22.87,113.68-29.61
	c-15.98,3.16-29.09,7.06-41.78,10.84c-4.01,1.19-7.99,2.37-11.95,3.54c-28.67,8.49-55.31,16.37-74.42,24.35
	C41.97,256.57,46.8,253.51,52.62,250.55z M35.66,301.53l-0.02-0.01c-16.11-6.49-24.13-12.78-23.85-18.7
	c0.23-4.9,5.81-9.78,15.05-14.67c-1.58,3.08-2.3,6.22-2.13,9.39c0.63,11.77,13.63,22.83,37.59,31.97c2.79,1.06,5.68,2.1,8.68,3.09
	C57.63,309.28,45.42,305.6,35.66,301.53z M257.38,337.87c-61.35-3.85-144.81-12.38-194.01-31.16
	c-22.44-8.56-35.11-18.98-35.66-29.33c-0.21-3.94,1.32-7.93,4.53-11.9c19.22-8.94,49.67-17.96,81.19-27.29
	c3.96-1.17,7.95-2.35,11.95-3.54c12.78-3.8,25.99-7.73,42.09-10.88c30.96-6.06,73.48-9.1,113.75-8.13
	c33.15,0.8,66.1,4.18,97.93,10.06c70.61,13.03,113.09,33.47,116.55,56.08c1.95,12.74-9.79,24.72-33.96,34.65
	c-29.74,12.22-80.2,21.27-128.55,23.05C305.33,340.5,279.24,339.24,257.38,337.87z M500.33,299.22
	c-10.74,12.36-31.04,22.18-60.34,29.21c-11.37,2.72-24.38,5.07-38.52,6.99c24.01-4.12,45.6-9.73,61.42-16.23
	c25.96-10.67,38.01-23.41,35.79-37.88c-3.67-23.95-47.03-45.3-118.97-58.58c-21.37-3.94-43.24-6.77-65.34-8.45
	c29.89,1.68,59.11,5.2,86.14,10.43c60.62,11.74,99.39,30.08,106.37,50.31C509.6,282.95,507.4,291.09,500.33,299.22z"/>
<g>
	<g>
		<path class="st1" d="M5.12,89.91V7.11h28.4c14,0,16.4,9.6,16.4,19.5v43.8c0,9.9-2.4,19.5-16.4,19.5H5.12z M35.22,28.81
			c0-6.5-1.3-9.4-6.7-9.4h-8.7v58.2h8.7c5.4,0,6.7-2.8,6.7-9.4V28.81z"/>
		<path class="st1" d="M63.22,89.91V7.11h14.7v82.81H63.22z"/>
		<path class="st1" d="M134.82,70.91c0,13.4-8.9,20.7-22.4,20.7c-14.2,0-22.4-8.1-22.4-20.6v-10.5h14.7v7.6c0,6.7,2,10.8,7.8,10.8
			c4.9,0,7.6-2.9,7.6-10.8v-2.7c0-14.3-30.1-10.1-30.1-32.9v-6.5c0-12.2,7.9-20.6,22.3-20.6c13.7,0,22.5,7.5,22.5,20.7v8h-14.7v-5.4
			c0-8-3.2-10.6-7.7-10.6c-5.1,0-7.7,3.5-7.7,10.7v1.3c0,15.1,30.1,8,30.1,33.2V70.91z"/>
		<path class="st1" d="M176.32,55.51h14.7v15.4c0,13.2-8.7,20.7-22.4,20.7c-13.6,0-22.4-7.5-22.4-20.7v-44.8
			c0-13.2,8.8-20.7,22.4-20.7c13.7,0,22.4,7.5,22.4,20.7v12.7h-14.7v-10c0-6.8-2.1-10.7-7.7-10.7c-5.4,0-7.7,3.7-7.7,10.7v39.4
			c0,7,2.3,10.7,7.7,10.7c5.6,0,7.7-3.9,7.7-10.7V55.51z"/>
		<path class="st1" d="M202.82,70.91v-44.8c0-13.2,8.8-20.7,22.4-20.7c13.7,0,22.4,7.5,22.4,20.7v44.8c0,13.2-8.7,20.7-22.4,20.7
			C211.62,91.61,202.82,84.11,202.82,70.91z M232.92,28.81c0-6.8-2.1-10.7-7.7-10.7c-5.4,0-7.7,3.7-7.7,10.7v39.4
			c0,7,2.3,10.7,7.7,10.7c5.6,0,7.7-3.9,7.7-10.7V28.81z"/>
		<path class="st1" d="M290.72,7.11h14.7v63.8c0,13.2-8.7,20.7-22.4,20.7c-13.6,0-22.4-7.5-22.4-20.7V7.11h14.7v61.1
			c0,7,2.3,10.7,7.7,10.7c5.6,0,7.7-3.9,7.7-10.7V7.11z"/>
		<path class="st1" d="M351.32,89.91l-19.1-49.1l0.4,49.1h-13.5V7.11h14.2l19.5,49.2l-0.4-49.2h13.5v82.81H351.32z"/>
		<path class="st1" d="M387.01,89.91v-70.5h-11.4V7.11h37.6v12.3h-11.5v70.5H387.01z"/>
		<path class="st1" d="M465.81,70.91c0,13.4-8.9,20.7-22.4,20.7c-14.2,0-22.4-8.1-22.4-20.6v-10.5h14.7v7.6c0,6.7,2,10.8,7.8,10.8
			c4.9,0,7.6-2.9,7.6-10.8v-2.7c0-14.3-30.1-10.1-30.1-32.9v-6.5c0-12.2,7.9-20.6,22.3-20.6c13.7,0,22.5,7.5,22.5,20.7v8h-14.7v-5.4
			c0-8-3.2-10.6-7.7-10.6c-5.1,0-7.7,3.5-7.7,10.7v1.3c0,15.1,30.1,8,30.1,33.2V70.91z"/>
		<path class="st1" d="M475.81,89.91v-15.9h15.2v15.9H475.81z"/>
	</g>
	<g>
		<path class="st1" d="M125.02,184.45c0,13.4-8.9,20.7-22.4,20.7c-14.2,0-22.4-8.1-22.4-20.6v-10.5h14.7v7.6c0,6.7,2,10.8,7.8,10.8
			c4.9,0,7.6-2.9,7.6-10.8v-2.7c0-14.3-30.1-10.1-30.1-32.9v-6.5c0-12.2,7.9-20.6,22.3-20.6c13.7,0,22.5,7.5,22.5,20.7v8h-14.7v-5.4
			c0-8-3.2-10.6-7.7-10.6c-5.1,0-7.7,3.5-7.7,10.7v1.3c0,15.1,30.1,8,30.1,33.2V184.45z"/>
		<path class="st1" d="M137.12,203.45v-82.81h28.4c14,0,16.4,9.6,16.4,19.5v13.2c0,9.9-2.4,19.5-16.4,19.5h-13.7v30.6H137.12z
			 M167.22,142.34c0-6.5-1.3-9.4-6.7-9.4h-8.7v27.6h8.7c5.4,0,6.7-2.9,6.7-9.5V142.34z"/>
		<path class="st1" d="M193.42,203.45v-82.81h35.6v12.3h-20.9v21.6h20.3v12.3h-20.3v24.3h20.9v12.3H193.42z"/>
		<path class="st1" d="M270.82,169.04h14.7v15.4c0,13.2-8.7,20.7-22.4,20.7c-13.6,0-22.4-7.5-22.4-20.7v-44.8
			c0-13.2,8.8-20.7,22.4-20.7c13.7,0,22.4,7.5,22.4,20.7v12.7h-14.7v-10c0-6.8-2.1-10.7-7.7-10.7c-5.4,0-7.7,3.7-7.7,10.7v39.4
			c0,7,2.3,10.7,7.7,10.7c5.6,0,7.7-3.9,7.7-10.7V169.04z"/>
		<path class="st1" d="M298.01,203.45v-82.81h14.7v82.81H298.01z"/>
		<path class="st1" d="M355.82,203.45l-2.3-17.5h-14.3l-2.3,17.5h-14.6l12.1-82.81h24l12,82.81H355.82z M346.42,131.54l-5.7,42.2
			h11.2L346.42,131.54z"/>
		<path class="st1" d="M380.11,203.45v-82.81h14.7v70.5h18.7v12.3H380.11z"/>
		<path class="st1" d="M465.82,184.45c0,13.4-8.9,20.7-22.4,20.7c-14.2,0-22.4-8.1-22.4-20.6v-10.5h14.7v7.6c0,6.7,2,10.8,7.8,10.8
			c4.9,0,7.6-2.9,7.6-10.8v-2.7c0-14.3-30.1-10.1-30.1-32.9v-6.5c0-12.2,7.9-20.6,22.3-20.6c13.7,0,22.5,7.5,22.5,20.7v8h-14.7v-5.4
			c0-8-3.2-10.6-7.7-10.6c-5.1,0-7.7,3.5-7.7,10.7v1.3c0,15.1,30.1,8,30.1,33.2V184.45z"/>
		<path class="st1" d="M475.81,203.45v-15.9h15.2v15.9H475.81z"/>
	</g>
	<g>
		<path class="st1" d="M101.42,316.98c-1.1-2.6-1.1-9.8-1.1-15.1v-12.5c0-5.9-2.4-8.1-6.6-8.1h-8.8v35.7h-14.7v-82.81h28.1
			c13.9,0,16.7,9,16.7,18.9v2.8c0,7.5-0.5,17.8-11.8,19.4c11.5,1.3,11.8,9.8,11.8,17.6v12.4c0,4.6,0.1,9.6,0.8,11.7H101.42z
			 M100.32,255.28c0-6-1.5-8.8-6.7-8.8h-8.7v22.5h8.9c5,0,6.5-2.6,6.5-7.9V255.28z"/>
		<path class="st1" d="M127.52,316.98v-82.81h35.6v12.3h-20.9v21.6h20.3v12.3h-20.3v24.3h20.9v12.3H127.52z"/>
		<path class="st1" d="M215.92,316.98l-7.6-48.9l-7.5,48.9h-19.4l-9-82.81h15.5l4.1,60.4l9.5-60.4h13.8l9.5,60.4l4.1-60.4h15.5
			l-9,82.81H215.92z"/>
		<path class="st1" d="M283.12,316.98l-2.3-17.5h-14.3l-2.3,17.5h-14.6l12.1-82.81h24l12,82.81H283.12z M273.72,245.08l-5.7,42.2
			h11.2L273.72,245.08z"/>
		<path class="st1" d="M338.62,316.98c-1.1-2.6-1.1-9.8-1.1-15.1v-12.5c0-5.9-2.4-8.1-6.6-8.1h-8.8v35.7h-14.7v-82.81h28.1
			c13.9,0,16.7,9,16.7,18.9v2.8c0,7.5-0.5,17.8-11.8,19.4c11.5,1.3,11.8,9.8,11.8,17.6v12.4c0,4.6,0.1,9.6,0.8,11.7H338.62z
			 M337.52,255.28c0-6-1.5-8.8-6.7-8.8h-8.7v22.5h8.9c5,0,6.5-2.6,6.5-7.9V255.28z"/>
		<path class="st1" d="M364.71,316.98v-82.81h28.4c14,0,16.4,9.6,16.4,19.5v43.8c0,9.9-2.4,19.5-16.4,19.5H364.71z M394.81,255.88
			c0-6.5-1.3-9.4-6.7-9.4h-8.7v58.2h8.7c5.4,0,6.7-2.8,6.7-9.4V255.88z"/>
		<path class="st1" d="M465.82,297.98c0,13.4-8.9,20.7-22.4,20.7c-14.2,0-22.4-8.1-22.4-20.6v-10.5h14.7v7.6c0,6.7,2,10.8,7.8,10.8
			c4.9,0,7.6-2.9,7.6-10.8v-2.7c0-14.3-30.1-10.1-30.1-32.9v-6.5c0-12.2,7.9-20.6,22.3-20.6c13.7,0,22.5,7.5,22.5,20.7v8h-14.7v-5.4
			c0-8-3.2-10.6-7.7-10.6c-5.1,0-7.7,3.5-7.7,10.7v1.3c0,15.1,30.1,8,30.1,33.2V297.98z"/>
		<path class="st1" d="M475.81,316.98v-15.9h15.2v15.9H475.81z"/>
	</g>
</g>
</svg>
