<?xml version="1.0" encoding="utf-8"?>
<!-- Generator: Adobe Illustrator 26.5.0, SVG Export Plug-In . SVG Version: 6.00 Build 0)  -->
<svg version="1.1" id="Layer_1" xmlns="http://www.w3.org/2000/svg" xmlns:xlink="http://www.w3.org/1999/xlink" x="0px" y="0px"
	 viewBox="0 0 789.7 175.9" style="enable-background:new 0 0 789.7 175.9;" xml:space="preserve">
<style type="text/css">
	.st0{fill:#FFFFFF;}
	.st1{fill:#FF7F3F;}
</style>
<g>
	<path class="st0" d="M55.3,122.6l-0.2-0.7l-0.5-1.5l-0.6-0.9l-0.4-0.5l-1.2-0.9l-0.9-0.5l-0.5-0.2l-0.8-0.2l-1.9-0.3l-1.4-0.1
		l-2.6-0.1h-2.7l-0.7,0l-1.6,0l-2.7-0.1l-1.6,0l-0.7,0.2l-0.3,0.3l-0.2,0.6l-0.1,0.7v3.9l0,1.1l-0.1,0.8v3.5l-0.1,2.1v1l0,0.7
		l0.1,1.3l-0.1,0.7v2l0,1.1v4.2l0.1,0.9l0.1,0.5l0.6,0.6h0.6l1,0.1l0.9-0.1l0.4-0.6l0-2.1V139l0.1-1.2l0-0.7l0.1-0.7v-0.8l0-0.8V134
		l0.2-1.7l0-0.1l0.3-0.1l0.9,0h4.9l1.2,0.1l1.6,0l1.1,0.1l1.7,0l1.2-0.2l0.8-0.2l1.1-0.6l1.1-0.8l0.7-0.7l0.7-1.2l0.5-1.3l0.2-1
		l0.1-1l0-1.1l0-0.7L55.3,122.6z M37.3,126.3l0-0.7V124l0.1-0.9l0-1.8l0.2-0.9l1.3-0.1l0.7,0h2.2l1.6-0.1l0.5,0l4-0.1l1.8,0.3
		l0.5,0.2l0.6,0.5l0.3,0.4l0.3,0.6l0.3,1l0.1,0.7v0.8l0,0.8l-0.2,1.2l-0.2,0.5l-0.3,0.4l-0.3,0.4l-0.9,0.6l-0.6,0.2l-1.1,0.2l-0.9,0
		l-0.6,0h-1.1l-1.4-0.1h-0.8l-1.6-0.1h-1l-2.6-0.1l-0.6-0.1h-0.2l-0.2-0.2l-0.1-0.4l0-0.8L37.3,126.3z"/>
	<polygon class="st0" points="63.6,117.3 63.1,117 62.3,116.8 61.4,116.9 60.7,117.4 60.2,118 60,118.5 60,119.4 60.3,120.2 
		60.7,120.7 61.5,121 62.7,121.2 63.4,120.9 63.8,120.5 64.1,120.1 64.3,119.4 64.4,118.8 64.2,118 	"/>
	<polygon class="st0" points="63.5,124.7 62.3,124.5 61.3,124.5 60.7,124.7 60.4,125.8 60.5,126.7 60.4,132.2 60.4,133.4 60.4,135 
		60.4,138.4 60.5,139.2 60.4,140.2 60.5,141.9 60.8,142.4 61.3,142.7 62.2,142.9 63,142.9 63.5,142.7 63.8,142.2 64,141.5 
		64.1,140.3 64,125.9 	"/>
	<polygon class="st0" points="85.1,137.5 84.4,137.3 83.4,137.5 82.7,138.2 82,138.7 80.7,139.4 79.7,139.8 79.3,139.8 77.4,139.9 
		76.4,139.7 75.6,139.3 74.7,138.8 73.7,137.9 73.3,137.2 72.6,135.9 72.3,135.1 72.2,134.4 72.2,133.6 72.3,132.5 72.4,131.7 
		72.9,130.6 73.3,129.9 73.9,129.3 74.3,128.8 74.6,128.5 75.1,128.2 76.4,127.7 77.1,127.4 78.1,127.3 78.8,127.3 79.3,127.4 
		81,128 81.9,128.5 82.3,128.8 82.9,129.4 83.3,129.8 83.8,130 84.2,130.1 84.7,130 85.3,129.8 85.8,129.3 86.1,128.7 86.1,127.8 
		85.7,127.2 85.4,126.8 84,125.7 83.2,125.3 82.7,125 82,124.7 80.2,124.1 79,123.9 78.5,124 77.7,123.9 76.7,124.1 76.2,124.2 
		73.8,125.1 72.6,125.8 71.3,126.9 70.6,127.7 69.9,128.7 69.6,129.3 69,131.2 68.7,132.1 68.7,132.8 68.6,134.6 69,136.6 
		69.7,138.1 70,138.6 70.6,139.5 71.7,140.8 72.9,141.7 74.2,142.5 74.8,142.8 76.1,143.3 77.2,143.5 78.8,143.5 80.3,143.3 
		82.1,142.7 83.6,141.9 84.6,141.3 85.4,140.6 85.9,140 86.2,139.5 86.2,138.7 85.9,138.1 	"/>
	<polygon class="st0" points="106.5,139.4 106,138.7 101.9,134.4 101.7,134.2 101.4,133.9 100.8,133.1 100.5,132.6 100.5,132.6 
		101.2,131.8 104.3,129 105.3,128.2 106,127.5 106.5,126.9 106.5,126.2 106.3,125.9 105.9,125.3 105.2,124.9 104.8,124.7 
		104.1,124.7 103,125.5 101.1,127.3 100,128.2 99,129.1 98,130.1 95.8,131.9 94.8,133 94.5,133.1 94.5,132 94.5,119.3 94.5,118 
		94.4,117.5 94.1,116.9 92.9,116.7 92,116.7 91.5,116.9 91,117.4 91,128.2 90.9,130.4 90.9,131.7 90.9,132.4 90.9,133 90.8,133.8 
		91,134.7 90.9,136.1 90.9,137.8 91,138.5 90.9,139.8 90.9,140.5 91,141.6 91.1,142.3 91.8,142.8 92.9,142.9 94.1,142.7 94.5,141.9 
		94.5,140 94.5,138.9 94.6,138.2 95.3,137.3 97.5,135.4 97.7,135.3 98.2,135.5 104.3,142.1 105.1,142.8 105.8,143 106.6,142.7 
		107.7,141.8 107.9,141 107.3,140.2 	"/>
	<polygon class="st0" points="132.7,117.6 131.7,116.8 131.1,116.5 129.7,116.1 128.3,116 126.8,116.2 125.7,116.7 124.9,117.3 
		124.4,117.9 123.8,118.9 123.5,119.7 123.3,120.4 123.2,122.1 123.2,123.7 123.2,124.6 123.2,124.7 122.2,124.8 121.9,124.8 
		121.2,125.1 120.9,126.1 120.9,127 121.3,128.1 122.1,128.3 122.7,128.3 123.2,128.3 123.3,128.4 123.4,129.5 123.2,132 
		123.3,134.1 123.3,134.8 123.3,140.1 123.4,141.8 123.6,142.4 124.1,142.8 124.8,143 125.4,142.9 126.3,142.7 126.8,142.2 
		126.9,141.6 126.8,139 126.9,138.3 127,135.1 126.9,133.7 126.9,132.3 126.9,131.3 126.8,130.7 126.9,129 127,128.4 127.3,128.3 
		128.3,128.3 129.5,128.3 130.2,128.2 130.7,127.7 130.8,126.9 130.8,126.2 130.8,126 130.5,125.3 129.9,125 128.8,124.9 
		127.3,124.8 127,124.6 126.9,124.2 126.9,123.2 127,121.3 127.3,120.1 127.5,119.7 127.9,119.6 128.4,119.5 129.4,119.6 
		129.8,119.7 130.4,120.2 130.9,120.5 131.6,120.6 132.1,120.5 132.7,120.2 133.2,119.6 133.4,118.8 133.2,118.2 	"/>
	<polygon class="st0" points="147.5,125.5 146.7,124.9 145.6,124.4 144,124 142.5,124 141.3,124.1 140.2,124.5 139.5,124.8 
		138.7,125.3 138.5,124.9 137.8,124.6 136.8,124.5 136.5,124.5 136.1,124.7 135.7,125 135.4,125.6 135.3,128.1 135.3,131.5 
		135.4,132.6 135.4,134.6 135.3,135.9 135.4,137.2 135.3,141.1 135.5,142.1 136.1,142.6 136.8,142.8 137.3,142.7 137.8,142.8 
		138.2,142.7 138.7,142.4 139,141.8 139,138.3 139,137.3 139,136.3 139.1,134.7 139.1,133.2 139,132.2 139.1,131.1 139.4,129.9 
		139.6,129.4 139.9,128.8 140.5,128.2 141.2,127.7 141.9,127.5 142.6,127.4 143.1,127.4 143.8,127.5 144.8,127.9 145.7,128.4 
		146.3,128.6 147.2,128.6 147.8,128.1 148.2,127.5 148.4,126.8 148.2,126.3 	"/>
	<path class="st0" d="M169.6,129.7l-0.3-0.7l-0.5-0.7l-1-1.2l-0.6-0.7l-0.7-0.7l-1.6-0.9l-0.7-0.2l-0.6-0.2l-0.9-0.2l-1.4-0.2
		l-1.1,0l-0.8,0.2l-0.6,0.1l-1.8,0.6l-1.4,0.8l-0.6,0.4l-0.8,0.7l-0.9,0.9l-0.4,0.5l-0.7,1.2l-0.5,1l-0.3,1l-0.2,1.2l-0.1,1.2l0,1.2
		l0.1,0.7l0.2,1.1l0.2,0.8l0.4,0.9l0.6,1.1l1.1,1.2l0.9,0.7l1.3,0.9l0.6,0.3l1.6,0.7l1.6,0.3l1.2,0l1.5-0.1l1.7-0.6l1.4-0.6l0.7-0.4
		l0.7-0.6l0.7-0.6l1-1.1l0.5-0.8l0.4-0.8l0.5-1.6l0.1-0.7l0.1-1.1l0.1-1.1v-0.9l-0.2-1.3L169.6,129.7z M166.8,133.2l0,0.9l-0.2,1.6
		l-0.3,0.7l-0.5,0.9l-0.4,0.6l-0.4,0.5l-0.5,0.4l-0.8,0.5l-1.5,0.6l-1,0.1l-0.5,0.1h-0.7l-0.6-0.1l-0.9-0.3l-1.4-0.7l-0.9-0.8
		l-0.4-0.4l-0.6-0.9l-0.5-1.5l-0.1-0.7l-0.1-1.5l0.1-1l0.2-1l0.4-0.8l0.4-0.6l0.8-0.9l0.5-0.4l0.7-0.4l1.1-0.5l1.4-0.2l1.3,0.2
		l0.6,0.1l1.2,0.4l1,0.6l0.6,0.5l0.3,0.3l0.7,1l0.5,1.1l0.2,0.6L166.8,133.2z"/>
	<polygon class="st0" points="202.8,130.8 202.8,130.5 202.5,128.9 202,127.7 201.7,127.2 201.2,126.7 200.6,126.1 200,125.5 
		199.1,125 198.5,124.6 197.7,124.3 196.6,124 195.7,123.9 194.5,123.9 193.7,124.1 192.6,124.3 192.1,124.5 190.5,125.3 
		189.8,125.8 189.1,126.5 189,126.5 187.3,125.2 185.8,124.5 184.3,124.1 182.7,124 181,124.2 179.9,124.4 179,124.8 178.5,125.2 
		178.2,124.8 177.2,124.6 176.3,124.6 175.6,124.8 175.1,125.4 175.1,127.6 175.1,130.8 175,132.3 175,133.3 175,134.2 175,135.7 
		174.9,136.7 175,140.9 175,141.6 175.2,142.6 175.6,142.8 176.7,142.9 177.9,142.8 178.3,142.3 178.4,141.9 178.6,140.3 
		178.6,138.2 178.5,136.9 178.5,133.9 178.6,132.5 178.7,131.5 179,129.9 179.4,129.1 179.7,128.5 180.2,128.1 180.8,127.8 
		181.6,127.6 182.4,127.5 183.2,127.5 184.1,127.6 185.1,127.8 185.6,128.1 185.9,128.5 186.4,129.1 186.6,129.5 186.9,130.5 
		187.1,131.3 187.3,133 187.3,134.9 187.2,139.3 187.3,140.4 187.2,141.1 187.2,141.7 187.6,142.6 188.4,142.8 189.1,142.9 
		189.8,143 190.4,142.8 190.8,142.2 190.9,140.6 190.9,139 190.9,138.3 190.9,135.4 190.8,134.9 190.8,132.7 191.1,130.7 
		191.4,129.8 191.7,129.2 192,128.8 192.6,128.3 193.6,127.8 194.7,127.4 195.5,127.5 196.5,127.7 197.4,128 197.8,128.2 
		198.2,128.6 198.7,129.2 198.9,129.6 199.3,131.1 199.5,135.1 199.4,136 199.4,139.7 199.5,140.6 199.4,141.4 199.5,141.9 
		199.7,142.4 200.1,142.7 201,142.9 202.2,142.7 202.7,142 202.9,140.7 203,132.7 202.9,131.4 	"/>
	<path class="st0" d="M236.8,129.7l-0.3-0.7l-0.5-0.7l-1-1.2l-0.6-0.7l-0.7-0.7l-1.6-0.9l-0.7-0.2l-0.6-0.2l-1-0.2l-1.5-0.2l-1.1,0
		l-0.8,0.2l-0.6,0.1l-1.8,0.6l-1.4,0.8l-0.6,0.4l-0.8,0.7l-0.9,0.9l-0.4,0.5l-0.7,1.2l-0.5,1l-0.3,1l-0.2,1.2l-0.1,1.2l0,1.2
		l0.1,0.7l0.2,1.1l0.2,0.8l0.4,0.9l0.6,1.1l1.1,1.2l0.9,0.7l1.3,0.9l0.6,0.3l1.6,0.7l1.6,0.3l1.2,0l1.5-0.1l1.7-0.6l1.4-0.6l0.7-0.4
		l0.7-0.6l0.7-0.6l1-1.1l0.5-0.8l0.4-0.8l0.5-1.6l0.1-0.7l0.1-1.1l0.1-1.1v-0.9l-0.2-1.3L236.8,129.7z M234.1,133.2l0,0.9l-0.2,1.6
		l-0.3,0.7l-0.5,0.9l-0.4,0.6l-0.4,0.5l-0.5,0.4l-0.8,0.5l-1.5,0.6l-1,0.1l-0.5,0.1h-0.7l-0.6-0.1l-1-0.3l-1.4-0.7l-1-0.8l-0.4-0.4
		l-0.5-0.9l-0.5-1.5l-0.1-0.7l-0.1-1.5l0.1-1l0.2-1l0.4-0.8l0.4-0.6l0.8-0.9l0.5-0.4l0.7-0.4l1.1-0.5l1.4-0.2l1.3,0.2l0.6,0.1
		l1.2,0.4l1,0.6l0.6,0.5l0.3,0.3l0.7,1l0.5,1.1l0.2,0.6L234.1,133.2z"/>
	<polygon class="st0" points="258.5,134 258.5,133 258.4,132 258.5,129.2 258.4,128.2 258.5,127.2 258.5,126.4 258.4,125.5 
		258.4,125.3 258.1,124.9 257.4,124.7 256.8,124.6 256.2,124.6 255.5,124.8 255.1,125.3 254.9,127.7 254.9,129 254.9,129.7 
		255,130.2 255,130.9 254.9,132 254.9,132.5 254.9,133.6 254.9,134.5 254.9,135.8 254.4,137.7 253.4,139.1 252.7,139.6 252.3,139.8 
		251.7,140 250.7,140.2 249.7,140.2 248.8,140 248.1,139.7 247.6,139.4 246.8,138.6 246.5,138.2 246,137 245.7,135.7 245.6,130.6 
		245.7,129.7 245.7,127 245.7,126.2 245.6,125.6 245.2,124.9 244.2,124.6 243.4,124.7 242.6,124.9 242.3,125.4 242,128.4 242,129.1 
		242,130.2 242.2,136.3 242.3,137.1 242.9,138.9 243.6,140.3 244,140.7 244.8,141.6 245.2,141.8 245.5,142.2 246.1,142.6 
		246.6,142.8 247.2,143.1 248.9,143.5 250.4,143.6 251.5,143.5 252.7,143.3 254.4,142.6 255.1,142.2 255.2,142.5 255.7,142.8 
		256.7,142.9 257.4,142.8 258.2,142.5 258.4,141.5 258.4,140.1 258.4,139.5 258.4,138.5 258.6,134.9 	"/>
	<polygon class="st0" points="276.8,125.5 276,124.9 274.9,124.4 273.3,124 271.8,124 270.6,124.1 269.5,124.5 268.8,124.8 
		268,125.3 267.8,124.9 267.1,124.6 266.1,124.5 265.8,124.5 265.4,124.7 265,125 264.8,125.6 264.6,128.1 264.6,131.5 264.7,132.6 
		264.7,134.6 264.6,135.9 264.7,137.2 264.7,141.1 264.8,142.1 265.4,142.6 266.1,142.8 266.6,142.7 267.1,142.8 267.5,142.7 
		268.1,142.4 268.3,141.8 268.3,138.3 268.3,137.3 268.3,136.3 268.4,134.7 268.4,133.2 268.3,132.2 268.4,131.1 268.7,129.9 
		268.9,129.4 269.2,128.8 269.8,128.2 270.5,127.7 271.2,127.5 271.9,127.4 272.4,127.4 273.1,127.5 274.2,127.9 275,128.4 
		275.6,128.6 276.5,128.6 277.1,128.1 277.5,127.5 277.7,126.8 277.5,126.3 	"/>
	<polygon class="st0" points="307.5,137.5 306.8,137.3 305.9,137.5 305.1,138.2 304.5,138.7 303.2,139.4 302.1,139.8 301.7,139.8 
		299.8,139.9 298.8,139.7 298,139.3 297.1,138.8 296.1,137.9 295.7,137.2 295,135.9 294.8,135.1 294.6,134.4 294.6,133.6 
		294.7,132.5 294.9,131.7 295.3,130.6 295.8,129.9 296.3,129.3 296.8,128.8 297,128.5 297.5,128.2 298.9,127.7 299.6,127.4 
		300.6,127.3 301.2,127.3 301.8,127.4 303.5,128 304.4,128.5 304.8,128.8 305.4,129.4 305.7,129.8 306.3,130 306.7,130.1 307.2,130 
		307.7,129.8 308.2,129.3 308.5,128.7 308.5,127.8 308.1,127.2 307.8,126.8 306.4,125.7 305.7,125.3 305.1,125 304.5,124.7 
		302.6,124.1 301.4,123.9 301,124 300.1,123.9 299.1,124.1 298.6,124.2 296.3,125.1 295.1,125.8 293.8,126.9 293,127.7 292.3,128.7 
		292,129.3 291.4,131.2 291.2,132.1 291.1,132.8 291.1,134.6 291.5,136.6 292.1,138.1 292.5,138.6 293.1,139.5 294.2,140.8 
		295.4,141.7 296.6,142.5 297.2,142.8 298.5,143.3 299.6,143.5 301.2,143.5 302.7,143.3 304.5,142.7 306.1,141.9 307,141.3 
		307.9,140.6 308.4,140 308.6,139.5 308.7,138.7 308.4,138.1 	"/>
	<path class="st0" d="M330.1,129.7l-0.3-0.7l-0.5-0.7l-1-1.2l-0.6-0.7l-0.7-0.7l-1.6-0.9l-0.7-0.2l-0.6-0.2l-1-0.2l-1.5-0.2l-1.1,0
		l-0.8,0.2l-0.6,0.1l-1.8,0.6l-1.4,0.8l-0.6,0.4l-0.8,0.7l-0.9,0.9l-0.4,0.5l-0.7,1.2l-0.5,1l-0.3,1l-0.2,1.2l-0.1,1.2l0,1.2
		l0.1,0.7l0.2,1.1l0.2,0.8l0.4,0.9l0.6,1.1l1.1,1.2l0.9,0.7l1.3,0.9l0.6,0.3l1.6,0.7l1.6,0.3l1.2,0l1.5-0.1l1.7-0.6l1.4-0.6l0.7-0.4
		l0.7-0.6l0.7-0.6l1-1.1l0.5-0.8l0.4-0.8l0.5-1.6l0.1-0.7l0.1-1.1l0.1-1.1v-0.9l-0.2-1.3L330.1,129.7z M327.4,133.2l0,0.9l-0.2,1.6
		l-0.3,0.7l-0.5,0.9l-0.4,0.6l-0.4,0.5l-0.5,0.4l-0.8,0.5l-1.5,0.6l-1,0.1l-0.5,0.1h-0.7L320,140l-1-0.3l-1.4-0.7l-1-0.8l-0.4-0.4
		l-0.5-0.9l-0.5-1.5l-0.1-0.7l-0.1-1.5l0.1-1l0.2-1l0.4-0.8l0.4-0.6l0.8-0.9l0.5-0.4l0.7-0.4l1.1-0.5l1.4-0.2l1.3,0.2l0.6,0.1
		l1.2,0.4l1,0.6l0.6,0.5l0.3,0.3l0.7,1l0.5,1.1l0.2,0.6L327.4,133.2z"/>
	<polygon class="st0" points="339.5,121.4 339.4,120.7 339.5,120.3 339.5,118.7 339.4,117.8 339.2,117.2 338.7,116.7 337.8,116.5 
		337,116.6 336.2,116.9 335.8,117.6 335.8,118.6 335.8,119.7 335.8,120.8 335.8,123.2 335.9,125.5 335.8,126.2 335.8,128.4 
		335.9,129.3 335.8,130.3 335.8,130.9 335.8,131.5 335.8,132 335.7,134.1 335.8,136.8 335.7,137.6 335.6,139.6 335.7,141.8 
		336.2,142.8 336.8,142.9 338.7,142.9 339.3,142.4 339.4,141.6 339.4,137.1 339.5,134.9 339.5,134.1 339.5,133.6 339.4,133 
		339.5,131.5 339.5,130.8 339.5,129.9 339.4,123 339.4,122 	"/>
	<polygon class="st0" points="349.6,121.4 349.5,120.7 349.6,120.3 349.6,118.7 349.5,117.8 349.3,117.2 348.8,116.7 347.9,116.5 
		347.1,116.6 346.3,116.9 345.9,117.6 345.9,118.6 345.9,119.7 345.9,120.8 345.9,123.2 345.9,125.5 345.9,126.2 345.9,128.4 
		345.9,129.3 345.9,130.3 345.9,130.9 345.9,131.5 345.9,132 345.8,134.1 345.9,136.8 345.8,137.6 345.7,139.6 345.8,141.8 
		346.3,142.8 346.9,142.9 348.8,142.9 349.3,142.4 349.5,141.6 349.5,137.1 349.6,134.9 349.6,134.1 349.6,133.6 349.5,133 
		349.6,131.5 349.6,130.8 349.6,129.9 349.5,123 349.5,122 	"/>
	<path class="st0" d="M372.5,130.1l-0.6-1.4l-0.8-1.2l-0.5-0.6l-0.5-0.5l-0.6-0.4l-0.3-0.3l-1.3-0.8l-1.5-0.7l-0.8-0.2l-2.2-0.2
		l-1.1,0.1l-1.5,0.3l-0.9,0.3l-1.1,0.6l-1.1,0.8l-1.2,1l-0.7,0.8l-0.5,0.7l-0.6,0.9l-0.5,1.3l-0.4,2.2l0.1,1.4l0.2,1.4l0.5,1.6
		l0.4,0.9l1,1.7l0.6,0.7l0.4,0.4l1.5,1.1l0.5,0.2l0.5,0.3l1.8,0.7l2,0.2h1.5l1.1-0.2l1.5-0.5l0.8-0.4l0.7-0.4l0.8-0.6l0.8-0.7
		l0.6-0.7l0.3-0.5v-0.6l-0.2-0.7l-0.6-0.5l-0.6-0.3l-0.8-0.1l-0.8,0.4l-0.6,0.6l-0.6,0.4l-0.7,0.4l-0.8,0.4l-1.1,0.4l-1,0.1l-0.6,0
		l-1.4-0.2l-0.9-0.4l-0.9-0.5l-0.8-0.6l-0.5-0.7l-0.5-0.9l-0.2-0.5l-0.2-0.7l0-0.2l0.1-0.2l0.3-0.2l1.7-0.1l0.8,0.1h2l0.6-0.1l1,0.1
		h1.2l1.1,0l3.3,0l0.9,0.1l0.8-0.2l0.4-0.2l0.3-0.2l0.2-0.4l0.2-1.1l-0.1-1.5L372.5,130.1z M369,131.2L369,131.2l-0.5,0l-1.5,0
		l-2-0.1h-1.2l-1.2-0.1h-0.9l-0.7,0.1l-1.5,0.1l-0.9-0.1l-0.1-0.1l0-0.1l0-0.2l0.3-0.5l0.2-0.3l0.9-0.9l1-0.7l0.5-0.2l1.1-0.3
		l0.7-0.2h0.7l0.8,0.1l1,0.2l1.2,0.5l0.9,0.7l0.6,0.6l0.4,0.5l0.2,0.3L369,131.2z"/>
	<polygon class="st0" points="392.2,137.5 391.5,137.3 390.5,137.5 389.7,138.2 389.1,138.7 387.8,139.4 386.8,139.8 386.3,139.8 
		384.4,139.9 383.4,139.7 382.7,139.3 381.8,138.8 380.8,137.9 380.3,137.2 379.7,135.9 379.4,135.1 379.3,134.4 379.3,133.6 
		379.4,132.5 379.5,131.7 380,130.6 380.4,129.9 380.9,129.3 381.4,128.8 381.7,128.5 382.2,128.2 383.5,127.7 384.2,127.4 
		385.2,127.3 385.8,127.3 386.4,127.4 388.1,128 389,128.5 389.4,128.8 390,129.4 390.4,129.8 390.9,130 391.3,130.1 391.8,130 
		392.4,129.8 392.8,129.3 393.2,128.7 393.2,127.8 392.8,127.2 392.4,126.8 391.1,125.7 390.3,125.3 389.8,125 389.1,124.7 
		387.2,124.1 386.1,123.9 385.6,124 384.7,123.9 383.7,124.1 383.3,124.2 380.9,125.1 379.7,125.8 378.4,126.9 377.6,127.7 
		376.9,128.7 376.7,129.3 376,131.2 375.8,132.1 375.7,132.8 375.7,134.6 376.1,136.6 376.8,138.1 377.1,138.6 377.7,139.5 
		378.8,140.8 380,141.7 381.2,142.5 381.9,142.8 383.2,143.3 384.2,143.5 385.9,143.5 387.3,143.3 389.2,142.7 390.7,141.9 
		391.6,141.3 392.5,140.6 393,140 393.3,139.5 393.3,138.7 393,138.1 	"/>
	<polygon class="st0" points="407.8,139.3 407.3,139 406.3,138.8 405.5,139 404.5,139.6 403.8,139.9 402.9,139.9 402.3,139.7 
		402.1,139.4 401.9,139.1 401.7,137.6 401.7,135.2 401.7,133.6 401.8,131.3 401.8,129.8 401.7,129 401.8,128.2 401.9,128.1 
		402.4,128.1 403.3,128.1 404.3,128.1 405.1,128 405.6,127.6 405.8,127 405.8,126.2 405.6,125.2 405.1,124.8 404.1,124.6 
		402.3,124.5 401.9,124.4 401.8,124.4 401.8,124.2 401.7,121.1 401.8,120.2 401.5,119.5 400.8,119.2 400,119.1 399.4,119.2 
		398.6,119.3 398.4,119.8 398.2,121.4 398.3,123.8 398.2,124.3 398,124.5 396.7,124.6 396.4,124.8 396,125.2 395.8,125.9 
		395.8,126.5 395.9,127.1 396.4,127.8 397,128 397.6,127.9 397.9,127.9 398,128 398.1,128.3 398.1,129 398,129.7 398.1,131.6 
		398.1,132.6 398.1,133.2 398.1,134.6 398.1,135.7 398.1,136.3 398.1,137.8 398.2,138.9 398.4,139.8 398.6,140.6 399.1,141.4 
		400,142.4 400.9,143 401.8,143.3 402.7,143.4 403.7,143.5 404.7,143.4 406.1,142.9 407.1,142.2 407.9,141.5 408.2,140.6 
		408.2,139.9 	"/>
	<polygon class="st0" points="415.9,117.3 415.4,117 414.5,116.8 413.6,116.9 412.9,117.4 412.5,118 412.3,118.5 412.3,119.4 
		412.6,120.2 413,120.7 413.7,121 414.9,121.2 415.6,120.9 416.1,120.5 416.4,120.1 416.6,119.4 416.6,118.8 416.4,117.9 	"/>
	<polygon class="st0" points="415.8,124.7 414.6,124.5 413.5,124.5 412.9,124.7 412.7,125.8 412.7,126.7 412.6,132.2 412.7,133.4 
		412.6,135 412.6,138.4 412.7,139.2 412.7,140.2 412.7,141.9 413,142.4 413.6,142.7 414.5,142.9 415.2,142.9 415.7,142.7 
		416.1,142.2 416.2,141.5 416.3,140.3 416.3,125.9 	"/>
	<path class="st0" d="M439.5,129.7l-0.3-0.7l-0.5-0.7l-1-1.2l-0.6-0.7l-0.7-0.7l-1.6-0.9l-0.7-0.2l-0.6-0.2l-1-0.2L431,124l-1.1,0
		l-0.8,0.2l-0.6,0.1l-1.8,0.6l-1.4,0.8l-0.6,0.4l-0.8,0.7l-0.9,0.9l-0.4,0.5l-0.7,1.2l-0.5,1l-0.3,1l-0.2,1.2l-0.1,1.2l0,1.2
		l0.1,0.7l0.2,1.1l0.2,0.8l0.4,0.9l0.6,1.1l1.1,1.2l0.9,0.7l1.3,0.9l0.6,0.3l1.6,0.7l1.6,0.3l1.2,0l1.5-0.1l1.7-0.6l1.4-0.6l0.7-0.4
		l0.7-0.6l0.7-0.6l1-1.1l0.5-0.8l0.4-0.8l0.5-1.6l0.2-0.7l0.2-1.1l0.1-1.1v-0.9l-0.2-1.3L439.5,129.7z M436.8,133.2l0,0.9l-0.2,1.6
		l-0.3,0.7l-0.5,0.9l-0.4,0.6l-0.4,0.5l-0.5,0.4l-0.8,0.5l-1.5,0.6l-1,0.1l-0.5,0.1H430l-0.6-0.1l-1-0.3l-1.4-0.7l-1-0.8l-0.4-0.4
		l-0.5-0.9l-0.5-1.5l-0.1-0.7l-0.1-1.5l0.1-1l0.2-1l0.4-0.8l0.4-0.6l0.8-0.9l0.5-0.4l0.7-0.4l1.1-0.5l1.4-0.2l1.3,0.2l0.6,0.1
		l1.2,0.4l1,0.6l0.6,0.5l0.3,0.3l0.7,1l0.5,1.1l0.2,0.6L436.8,133.2z"/>
	<polygon class="st0" points="461.6,131.9 461.5,131.3 461.4,130.4 461,129.1 460.6,127.9 459.9,127 459.3,126.3 458.4,125.6 
		457.8,125.2 457,124.8 455.4,124.3 454.7,124.2 453.8,124 452.6,124 452,124.1 451.4,124.2 449.3,124.8 448.8,125.1 448.4,125.3 
		448.4,125.2 447.9,124.7 446.9,124.6 446.1,124.6 445.4,124.8 445,125.7 445,126.8 444.9,129.3 444.9,135.5 445,136.9 445,137.5 
		444.9,138.6 444.9,139.7 445,141.8 445.1,142.2 445.5,142.7 446.5,142.8 447.5,142.6 448.3,142.3 448.5,141.9 448.6,140.8 
		448.5,139.2 448.5,135.9 448.6,135.2 448.5,133.3 448.5,132.9 448.6,131.9 449,130.1 449.2,129.4 450,128.3 450.3,128.1 
		451.2,127.8 451.9,127.6 452.2,127.6 453.5,127.4 454.2,127.5 455.2,127.7 455.8,128 456.5,128.4 457.2,129.4 457.5,130.1 
		457.7,130.4 457.9,131.1 458.1,133.1 458.1,141.7 458.3,142.4 458.8,142.8 459.8,142.9 461,142.8 461.3,142.3 461.5,141.7 
		461.6,140 461.6,139.3 461.7,137.8 461.7,137.1 461.7,136.4 	"/>
	<path class="st0" d="M495.6,129.7l-0.3-0.7l-0.5-0.7l-1-1.2l-0.6-0.7l-0.7-0.7l-1.6-0.9l-0.7-0.2l-0.6-0.2l-1-0.2l-1.5-0.2l-1.1,0
		l-0.8,0.2l-0.6,0.1l-1.8,0.6l-1.4,0.8l-0.6,0.4l-0.8,0.7l-0.9,0.9l-0.4,0.5l-0.7,1.2l-0.5,1l-0.3,1l-0.2,1.2l-0.1,1.2l0,1.2
		l0.1,0.7l0.2,1.1l0.2,0.8l0.4,0.9l0.6,1.1l1.1,1.2l0.9,0.7l1.3,0.9l0.6,0.3l1.6,0.7l1.6,0.3l1.2,0l1.5-0.1l1.7-0.6l1.4-0.6l0.7-0.4
		l0.7-0.6l0.7-0.6l1-1.1l0.5-0.8l0.4-0.8l0.5-1.6l0.2-0.7l0.2-1.1l0.1-1.1v-0.9l-0.2-1.3L495.6,129.7z M492.8,133.2l0,0.9l-0.2,1.6
		l-0.3,0.7l-0.5,0.9l-0.4,0.6l-0.4,0.5l-0.5,0.4l-0.8,0.5l-1.5,0.6l-1,0.1l-0.5,0.1H486l-0.6-0.1l-1-0.3l-1.3-0.7l-1-0.8l-0.4-0.4
		l-0.5-0.9l-0.5-1.5l-0.1-0.7l-0.1-1.5l0.1-1l0.2-1l0.4-0.8l0.4-0.6l0.8-0.9l0.5-0.4l0.7-0.4l1.1-0.5l1.4-0.2l1.3,0.2l0.6,0.1
		l1.2,0.4l1,0.6l0.6,0.5l0.3,0.3l0.7,1l0.5,1.1l0.2,0.6L492.8,133.2z"/>
	<polygon class="st0" points="510.8,117.6 509.7,116.8 509.1,116.5 507.8,116.1 506.3,116 504.9,116.2 503.8,116.7 503,117.3 
		502.5,117.9 501.8,118.9 501.6,119.7 501.4,120.4 501.2,122.1 501.2,123.7 501.3,124.6 501.2,124.7 500.3,124.8 500,124.8 
		499.2,125.1 498.9,126.1 499,127 499.3,128.1 500.2,128.3 500.7,128.3 501.3,128.3 501.3,128.4 501.4,128.9 501.3,132 501.4,134.1 
		501.3,134.8 501.4,140.1 501.5,141.8 501.7,142.4 502.1,142.8 502.8,143 503.4,142.9 504.4,142.7 504.8,142.2 504.9,141.6 
		504.9,139 505,138.3 505,135.1 504.9,133.7 505,132.3 505,131.3 504.9,130.7 504.9,129 505,128.4 505.3,128.3 506.4,128.3 
		507.5,128.3 508.3,128.2 508.7,127.7 508.9,126.9 508.9,126.2 508.8,126 508.6,125.3 508,125 506.9,124.9 505.4,124.8 505,124.6 
		504.9,124.2 504.9,123.2 505,121.3 505.3,120.1 505.5,119.7 506,119.6 506.5,119.5 507.4,119.6 507.8,119.7 508.5,120.2 509,120.5 
		509.7,120.6 510.2,120.5 510.8,120.2 511.3,119.6 511.5,118.8 511.2,118.2 	"/>
	<polygon class="st0" points="535.8,117.6 534.8,116.8 534.2,116.5 532.8,116.1 531.3,116 529.9,116.2 528.8,116.7 528,117.3 
		527.5,117.9 526.9,118.9 526.6,119.7 526.4,120.4 526.3,122.1 526.3,123.7 526.3,124.6 526.2,124.7 525.3,124.8 525,124.8 
		524.3,125.1 523.9,126.1 524,127 524.4,128.1 525.2,128.3 525.8,128.3 526.3,128.3 526.4,128.4 526.4,128.9 526.3,132 526.4,134.1 
		526.4,134.8 526.4,140.1 526.5,141.8 526.7,142.4 527.1,142.8 527.8,143 528.5,142.9 529.4,142.7 529.9,142.2 530,141.6 529.9,139 
		530,138.3 530.1,135.1 530,133.7 530,132.3 530,131.3 529.9,130.7 529.9,129 530,128.4 530.3,128.3 531.4,128.3 532.5,128.3 
		533.3,128.2 533.7,127.7 533.9,126.9 533.9,126.2 533.8,126 533.6,125.3 533,125 531.9,124.9 530.4,124.8 530.1,124.6 530,124.2 
		530,123.2 530.1,121.3 530.4,120.1 530.6,119.7 531,119.6 531.5,119.5 532.4,119.6 532.8,119.7 533.5,120.2 534,120.5 534.7,120.6 
		535.2,120.5 535.8,120.2 536.3,119.6 536.5,118.8 536.3,118.2 	"/>
	<path class="st0" d="M553.6,131.1l-0.1-1.2l-0.6-1.8l-0.4-0.8l-0.4-0.7l-0.5-0.5l-0.3-0.4l-1-0.7l-1.5-0.7l-1.4-0.4l-1-0.1l-1.3,0
		l-1.3,0.2l-1.7,0.5l-0.9,0.4l-1.5,0.9l-0.8,0.6l-0.5,0.6l-0.5,0.7l-0.1,0.5l0.3,0.6l0.7,0.7l0.5,0.3l0.6,0.1l0.9-0.3l0.6-0.6
		l0.7-0.6l0.5-0.4l1-0.6l0.7-0.2l0.6-0.1l0.9-0.1l1,0.1l1,0.3l0.6,0.3l1,0.9l0.2,0.4l0.4,0.9l0.1,0.4l0,0.2l-2,0.5l-0.9,0l-0.6,0.1
		l-1.9-0.1l-1.5,0l-2,0.3l-1,0.3l-1.2,0.7l-0.7,0.7l-0.7,1l-0.4,0.9l-0.3,1.2l0,1.1l0.3,1.3l0.4,1l0.8,1.1l0.5,0.4l0.4,0.4l1.2,0.7
		l0.8,0.3l1.2,0.3l1.1,0.2l1.6,0l1.4-0.1l0.8-0.1l0.7-0.2l1.1-0.5l0.5-0.4l0.3-0.2l0.1,0.6l0.6,0.3l1,0.1h0.7l0.6-0.2l0.2-0.5l0.2-2
		V138l0.1-0.9v-0.7l0.1-0.8v-2.2l0-1.1l-0.1-0.5L553.6,131.1z M549.9,135.1l-0.1,0.9l-0.3,1l-0.3,0.7l-0.2,0.4l-0.5,0.7L548,139
		l-0.9,0.4l-0.5,0.2l-1.4,0.2l-1,0l-1.4-0.2l-0.8-0.2l-0.4-0.2l-0.4-0.3l-0.3-0.3l-0.3-0.9l0-1l0.2-0.6l0.2-0.4l0.3-0.4l0.5-0.3
		l0.7-0.1l1-0.1l3.8,0l2.2-0.3l0.2,0L549.9,135.1z"/>
	<polygon class="st0" points="576.4,131.9 576.3,131.3 576.1,130.4 575.8,129.1 575.4,127.9 574.7,127 574.1,126.3 573.2,125.6 
		572.6,125.2 571.8,124.8 570.1,124.3 569.4,124.2 568.5,124 567.4,124 566.7,124.1 566.1,124.2 564,124.8 563.5,125.1 563.2,125.3 
		563.1,125.2 562.7,124.7 561.6,124.6 560.9,124.6 560.1,124.8 559.8,125.7 559.8,126.8 559.7,129.3 559.7,135.5 559.8,136.9 
		559.8,137.5 559.7,138.6 559.6,139.7 559.8,141.8 559.9,142.2 560.3,142.7 561.3,142.8 562.2,142.6 563.1,142.3 563.3,141.9 
		563.3,140.8 563.3,139.2 563.3,135.9 563.3,135.2 563.3,133.3 563.3,132.9 563.4,131.9 563.7,130.1 564,129.4 564.8,128.3 
		565.1,128.1 565.9,127.8 566.7,127.6 567,127.6 568.3,127.4 569,127.5 569.9,127.7 570.6,128 571.3,128.4 572,129.4 572.3,130.1 
		572.4,130.4 572.6,131.1 572.8,133.1 572.9,141.7 573.1,142.4 573.5,142.8 574.6,142.9 575.8,142.8 576.1,142.3 576.3,141.7 
		576.4,140 576.4,139.3 576.4,137.8 576.4,137.1 576.5,136.4 	"/>
	<polygon class="st0" points="603.2,117.6 602.2,116.8 601.5,116.5 600.2,116.1 598.7,116 597.3,116.2 596.2,116.7 595.4,117.3 
		594.9,117.9 594.3,118.9 594,119.7 593.8,120.3 593.6,122.1 593.6,123.7 593.7,124.6 593.6,124.7 592.7,124.8 592.4,124.8 
		591.7,125.1 591.3,126.1 591.4,127 591.8,128.1 592.6,128.3 593.1,128.3 593.7,128.3 593.7,128.4 593.8,128.9 593.7,132 
		593.8,134.1 593.8,134.8 593.8,140.1 593.9,141.8 594.1,142.4 594.5,142.8 595.2,143 595.9,142.9 596.8,142.7 597.2,142.2 
		597.3,141.6 597.3,139 597.4,138.3 597.5,135.1 597.3,133.7 597.4,132.3 597.4,131.3 597.3,130.7 597.3,129 597.4,128.4 
		597.7,128.3 598.8,128.3 599.9,128.3 600.7,128.2 601.1,127.7 601.3,126.9 601.3,126.2 601.2,126 601,125.3 600.4,125 599.3,124.9 
		597.8,124.8 597.4,124.6 597.3,124.2 597.3,123.2 597.4,121.3 597.7,120.1 598,119.7 598.4,119.6 598.9,119.5 599.8,119.6 
		600.2,119.7 600.9,120.2 601.4,120.5 602.1,120.6 602.6,120.5 603.2,120.2 603.7,119.6 603.9,118.8 603.7,118.2 	"/>
	<path class="st0" d="M621,131.1l-0.1-1.2l-0.6-1.8l-0.4-0.8l-0.4-0.7l-0.5-0.5l-0.3-0.4l-1-0.7l-1.5-0.7l-1.4-0.4l-1-0.1l-1.3,0
		l-1.3,0.2l-1.7,0.5l-0.9,0.4l-1.5,0.9l-0.8,0.6l-0.5,0.6l-0.5,0.7l-0.1,0.5l0.3,0.6l0.7,0.7l0.5,0.3l0.6,0.1l0.9-0.3l0.6-0.6
		l0.7-0.6l0.5-0.4l1-0.6l0.7-0.2l0.6-0.1l0.9-0.1l1,0.1l1,0.3l0.6,0.3l1,0.9l0.2,0.4l0.4,0.9l0.1,0.4l0,0.2l-2,0.5l-0.9,0l-0.6,0.1
		l-1.9-0.1l-1.5,0l-2,0.3l-1,0.3l-1.2,0.7l-0.7,0.7l-0.7,1l-0.4,0.9l-0.3,1.2l0,1.1l0.3,1.3l0.4,1l0.8,1.1l0.5,0.4l0.4,0.4l1.2,0.7
		l0.8,0.3l1.2,0.3l1.1,0.2l1.6,0l1.4-0.1l0.8-0.1l0.7-0.2l1.1-0.5l0.5-0.4l0.3-0.2l0.2,0.6l0.6,0.3l1,0.1h0.7l0.6-0.2l0.2-0.5l0.2-2
		V138l0.1-0.9v-0.7l0.1-0.8v-2.2l0-1.1l-0.1-0.5L621,131.1z M617.3,135.1l-0.1,0.9l-0.3,1l-0.3,0.7l-0.2,0.4l-0.5,0.7l-0.4,0.3
		l-0.9,0.4l-0.5,0.2l-1.4,0.2l-1,0l-1.4-0.2l-0.8-0.2l-0.4-0.2l-0.4-0.3l-0.3-0.3l-0.3-0.9l0-1l0.2-0.6l0.2-0.4l0.3-0.4l0.5-0.3
		l0.7-0.1l1-0.1l3.8,0l2.2-0.3l0.2,0L617.3,135.1z"/>
	<polygon class="st0" points="642.1,125 641.1,124.6 640.4,124.5 639.9,124.8 639.5,125.4 637.3,129.9 636.9,130.9 634.6,135.2 
		633.9,136.8 633.6,137.3 633.4,137.1 633.2,136.7 633,136.3 627.8,125.6 627.5,125.1 626.9,124.6 626.3,124.4 625.1,124.9 
		624.7,125.2 624.3,125.9 624.4,126.6 625.1,128 625.5,128.9 625.9,129.6 627.9,133.9 631.3,140.5 631.5,141.1 632,141.9 
		632.4,142.4 633.2,142.8 634.2,142.8 634.7,142.4 635.2,141.7 635.6,141 635.8,140.6 640.8,130.7 641.5,129.5 642.8,126.9 
		642.9,126 642.7,125.4 	"/>
	<path class="st0" d="M663.4,129.7l-0.3-0.7l-0.5-0.7l-1-1.2l-0.6-0.7l-0.7-0.7l-1.6-0.9l-0.7-0.2l-0.6-0.2l-1-0.2l-1.5-0.2l-1.1,0
		l-0.8,0.2l-0.6,0.1l-1.8,0.6l-1.4,0.8l-0.6,0.4l-0.8,0.7l-0.9,0.9l-0.4,0.5l-0.7,1.2l-0.5,1l-0.3,1l-0.2,1.2l-0.1,1.2l0,1.2
		l0.1,0.7l0.2,1.1l0.2,0.8l0.4,0.9l0.6,1.1l1.1,1.2l0.9,0.7l1.3,0.9l0.6,0.3l1.6,0.7l1.6,0.3l1.2,0l1.5-0.1l1.7-0.6l1.4-0.6l0.7-0.4
		l0.7-0.6l0.7-0.6l1-1.1l0.5-0.8l0.4-0.8l0.5-1.6l0.2-0.7l0.2-1.1l0.1-1.1v-0.9l-0.2-1.3L663.4,129.7z M660.7,133.2l0,0.9l-0.2,1.6
		l-0.3,0.7l-0.5,0.9l-0.4,0.6l-0.4,0.5l-0.5,0.4l-0.8,0.5l-1.5,0.6l-1,0.1l-0.5,0.1h-0.7l-0.6-0.1l-1-0.3L651,139l-1-0.8l-0.4-0.4
		l-0.5-0.9l-0.5-1.5l-0.1-0.7l-0.1-1.5l0.1-1l0.2-1l0.4-0.8l0.4-0.6l0.8-0.9l0.5-0.4l0.7-0.4l1.1-0.5l1.4-0.2l1.3,0.2l0.6,0.1
		l1.2,0.4l1,0.6l0.6,0.5l0.3,0.3l0.7,1l0.5,1.1l0.2,0.6L660.7,133.2z"/>
	<polygon class="st0" points="681.1,125.5 680.2,124.9 679.1,124.4 677.5,124 676,124 674.8,124.1 673.7,124.5 673,124.8 
		672.2,125.3 672,124.9 671.3,124.6 670.3,124.5 670,124.5 669.6,124.7 669.2,125 669,125.6 668.8,128.1 668.9,131.5 668.9,132.6 
		668.9,134.6 668.8,135.9 668.9,137.2 668.9,141.1 669,142.1 669.6,142.6 670.3,142.8 670.8,142.7 671.3,142.8 671.7,142.7 
		672.3,142.4 672.5,141.9 672.5,138.3 672.6,137.3 672.5,136.3 672.6,134.7 672.6,133.2 672.5,132.2 672.6,131.1 672.9,129.9 
		673.1,129.4 673.4,128.8 674,128.2 674.7,127.7 675.4,127.5 676.1,127.4 676.6,127.4 677.3,127.5 678.4,127.9 679.2,128.4 
		679.8,128.6 680.7,128.6 681.3,128.1 681.7,127.5 681.9,126.8 681.7,126.3 	"/>
	<polygon class="st0" points="689.5,124.7 688.2,124.5 687.2,124.5 686.6,124.7 686.3,125.8 686.4,126.7 686.3,132.2 686.3,133.4 
		686.3,135 686.3,138.4 686.4,139.2 686.3,140.2 686.4,141.9 686.7,142.4 687.3,142.7 688.2,142.9 688.9,142.9 689.4,142.7 
		689.8,142.2 689.9,141.5 690,140.3 689.9,125.9 	"/>
	<polygon class="st0" points="689.6,117.3 689,117 688.2,116.8 687.3,116.9 686.6,117.4 686.1,118 686,118.5 685.9,119.4 
		686.2,120.2 686.7,120.7 687.4,121 688.6,121.2 689.3,120.9 689.7,120.5 690,120.1 690.3,119.4 690.3,118.8 690.1,117.9 	"/>
	<polygon class="st0" points="706.2,139.3 705.7,139 704.8,138.8 703.9,139 702.9,139.6 702.2,139.9 701.4,139.9 700.8,139.7 
		700.5,139.4 700.3,139.1 700.1,137.6 700.1,135.2 700.1,133.6 700.2,132.4 700.2,129.8 700.2,129 700.3,128.2 700.3,128.1 
		700.8,128.1 701.8,128.1 702.7,128.1 703.5,128 704,127.6 704.2,127 704.2,126.2 704,125.2 703.6,124.8 702.5,124.6 700.7,124.5 
		700.3,124.4 700.3,124.4 700.2,124.2 700.2,121.1 700.2,120.2 700,119.5 699.2,119.2 698.5,119.1 697.8,119.2 697.1,119.3 
		696.9,119.8 696.7,121.4 696.7,123.8 696.6,124.3 696.4,124.5 695.2,124.6 694.8,124.8 694.4,125.2 694.2,125.9 694.2,126.5 
		694.3,127.1 694.8,127.8 695.5,128 696,127.9 696.4,127.9 696.4,128 696.5,128.3 696.5,129 696.5,129.7 696.5,131.6 696.5,132.6 
		696.6,133.2 696.5,134.6 696.6,135.7 696.5,136.3 696.6,137.8 696.6,138.9 696.8,139.8 697,140.6 697.5,141.4 698.4,142.4 
		699.3,143 700.2,143.3 701.2,143.4 702.1,143.5 703.1,143.4 704.5,142.9 705.5,142.2 706.4,141.5 706.6,140.6 706.6,139.9 	"/>
	<path class="st0" d="M727.8,130.1l-0.6-1.4l-0.8-1.2l-0.5-0.6l-0.5-0.5l-0.6-0.4l-0.3-0.3l-1.3-0.8l-1.5-0.7l-0.8-0.2l-2.2-0.2
		l-1.1,0.1l-1.5,0.3l-0.9,0.3l-1.1,0.6L713,126l-1.2,1l-0.7,0.8l-0.5,0.7l-0.6,0.9l-0.5,1.3l-0.4,2.2l0.1,1.4l0.2,1.4l0.5,1.6
		l0.4,0.9l1,1.7l0.6,0.7l0.4,0.4l0.3,0.3l0.5,0.3l0.7,0.5l0.5,0.2l0.5,0.3l1.8,0.7l2,0.2h1.5l1.1-0.2l1.5-0.5l0.8-0.4l0.7-0.4
		l0.8-0.6l0.8-0.7l0.6-0.7l0.3-0.5v-0.6l-0.2-0.7l-0.6-0.5l-0.6-0.3l-0.8-0.1l-0.8,0.4l-0.6,0.6l-0.7,0.4l-0.7,0.4l-0.8,0.4
		l-1.1,0.4l-1,0.1l-0.6,0l-1.4-0.2l-0.9-0.4l-0.9-0.5l-0.8-0.6l-0.5-0.7l-0.5-0.9l-0.2-0.5l-0.2-0.7l0-0.2l0.1-0.2l0.3-0.2l1.7-0.1
		l0.8,0.1h2l0.6-0.1l1,0.1h1.2l1.1,0l3.3,0l0.9,0.1l0.8-0.2l0.4-0.2l0.3-0.2l0.2-0.4l0.2-1.1L728,131L727.8,130.1z M724.2,131.2
		L724.2,131.2l-0.5,0l-1.5,0l-2-0.1H719l-1.2-0.1h-0.9l-0.7,0.1l-1.5,0.1l-0.9-0.1l-0.1-0.1l0-0.1l0-0.2l0.3-0.5l0.2-0.3l0.8-0.9
		l1-0.7l0.5-0.2l1.1-0.3l0.7-0.2h0.7l0.8,0.1l1,0.2l1.2,0.5l0.9,0.7l0.6,0.6l0.4,0.5l0.2,0.3L724.2,131.2z"/>
	<polygon class="st0" points="747.2,136.8 746.9,135.2 746.7,134.8 746.1,133.9 745.4,133.4 744.2,132.7 742.5,132.3 741.7,132.1 
		741.4,132.1 739.7,132 736.6,131.4 735.9,131.1 735.5,130.7 735.3,130.4 735.3,130.1 735.4,129.3 735.7,128.8 735.9,128.6 
		736.8,127.9 737.2,127.7 737.9,127.6 739.4,127.5 740.7,127.7 741.1,127.7 742.3,128.2 742.7,128.4 743,128.6 743.8,129.5 
		744.5,129.7 745.2,129.6 745.9,129.2 746.4,128.9 746.6,128.4 746.8,127.8 746.5,127.2 745.7,126.3 744.7,125.5 743.9,124.9 
		743.1,124.6 741.4,124.1 739.9,124 737.9,124 736.1,124.4 734.7,125 733.7,125.7 733,126.4 732.2,127.7 731.8,128.5 731.6,129.4 
		731.6,130.5 731.9,131.5 732.6,132.7 733.1,133.4 733.9,133.9 734.9,134.4 736.1,134.7 738.1,135.2 740.2,135.5 740.6,135.6 
		741.2,135.6 742.1,135.8 743.1,136.1 743.3,136.3 743.6,136.9 743.7,137.6 743.5,138.3 743.3,138.7 742.9,139 742.7,139.2 
		741.6,139.7 740.3,139.9 739.7,139.9 738.6,139.9 737.4,139.6 736.4,139.1 735.5,138.6 734.8,138.1 734.4,137.6 733.9,137.3 
		733.1,137.2 732.5,137.4 731.9,137.9 731.6,138.4 731.5,139.3 732.2,140.3 733,141 733.5,141.4 735.4,142.5 737.2,143.1 
		738.2,143.2 739.6,143.3 740.7,143.3 742.1,143 743.8,142.5 744.9,141.9 745.4,141.6 746,141 746.5,140.2 746.8,139.7 747.1,138.9 
		747.3,138 	"/>
</g>
<g>
	<path class="st0" d="M35.1,74V29.2c0-13.2,8.8-20.7,22.4-20.7c13.7,0,22.4,7.5,22.4,20.7V74c0,13.2-8.7,20.7-22.4,20.7
		C43.9,94.7,35.1,87.2,35.1,74z M65.2,31.9c0-6.8-2.1-10.7-7.7-10.7c-5.4,0-7.7,3.7-7.7,10.7v39.4c0,7,2.3,10.7,7.7,10.7
		c5.6,0,7.7-3.9,7.7-10.7V31.9z"/>
	<path class="st0" d="M124.3,93c-1.1-2.6-1.1-9.8-1.1-15.1V65.4c0-5.9-2.4-8.1-6.6-8.1h-8.8V93H93.1V10.2h28.1
		c13.9,0,16.7,9,16.7,18.9v2.8c0,7.5-0.5,17.8-11.8,19.4c11.5,1.3,11.8,9.8,11.8,17.6v12.4c0,4.6,0.1,9.6,0.8,11.7
		C138.7,93,124.3,93,124.3,93z M123.2,31.3c0-6-1.5-8.8-6.7-8.8h-8.7V45h8.9c5,0,6.5-2.6,6.5-7.9V31.3z"/>
	<path class="st0" d="M171.1,93V10.2h14.7v70.5h18.7V93H171.1z"/>
	<path class="st0" d="M213.9,93V10.2h35.6v12.3h-20.9v21.6h20.3v12.3h-20.3v24.3h20.9V93H213.9z"/>
	<path class="st0" d="M291.1,93l-2.3-17.5h-14.3L272.2,93h-14.6l12.1-82.8h24l12,82.8H291.1z M281.7,21.1L276,63.3h11.2L281.7,21.1z
		"/>
	<path class="st0" d="M321,93l-11.1-82.8h15.4l7.9,70.2l7.6-70.2h15.5l-11,82.8H321z"/>
	<path class="st0" d="M366.2,93V10.2h35.6v12.3h-20.9v21.6h20.3v12.3h-20.3v24.3h20.9V93H366.2z"/>
	<path class="st0" d="M434.9,93V10.2h14.7V93L434.9,93L434.9,93z"/>
	<path class="st0" d="M470.7,93V22.5h-11.4V10.2h37.6v12.3h-11.5V93H470.7z"/>
	<path class="st0" d="M530.7,93V22.5h-11.4V10.2h37.6v12.3h-11.5V93H530.7z"/>
	<path class="st0" d="M565.6,74V29.2c0-13.2,8.8-20.7,22.4-20.7c13.7,0,22.4,7.5,22.4,20.7V74c0,13.2-8.7,20.7-22.4,20.7
		C574.4,94.7,565.6,87.2,565.6,74z M595.7,31.9c0-6.8-2.1-10.7-7.7-10.7c-5.4,0-7.7,3.7-7.7,10.7v39.4c0,7,2.3,10.7,7.7,10.7
		c5.6,0,7.7-3.9,7.7-10.7V31.9z"/>
	<path class="st0" d="M674.2,10.2h14.7V74c0,13.2-8.7,20.7-22.4,20.7c-13.6,0-22.4-7.5-22.4-20.7V10.2h14.7v61.1
		c0,7,2.3,10.7,7.7,10.7c5.6,0,7.7-3.9,7.7-10.7V10.2z"/>
	<path class="st0" d="M745.6,74c0,13.4-8.9,20.7-22.4,20.7c-14.2,0-22.4-8.1-22.4-20.6V63.6h14.7v7.6c0,6.7,2,10.8,7.8,10.8
		c4.9,0,7.6-2.9,7.6-10.8v-2.7c0-14.3-30.1-10.1-30.1-32.9v-6.5c0-12.2,7.9-20.6,22.3-20.6c13.7,0,22.5,7.5,22.5,20.7v8h-14.7v-5.4
		c0-8-3.2-10.6-7.7-10.6c-5.1,0-7.7,3.5-7.7,10.7v1.3c0,15.1,30.1,8,30.1,33.2L745.6,74L745.6,74z"/>
</g>
<path class="st1" d="M626,160.8c22.6,0.8,45.7,1.5,68.8,1.5c1.7,0,3.4,0,5.1,0c0.1,0,0.2,0,0.2,0c16.6,0,33.7-0.6,51-1.9l-0.3-4.2
	c0,0-0.1,0-0.1,0c0,0,0,0,0,0c-16.9,1.3-33.8,1.8-50.8,1.9c-19.7-0.1-39.7-0.8-59-1.6c-10.5-0.4-21.4-0.8-32-1.1
	c-17.7-0.5-32.2-0.6-45.6-0.3c-0.5,0-1.1,0-1.6,0c-0.5,0-1.1,0-1.6,0c-2.3,0-4.8,0.1-7.4,0.3c-4.2,0.2-8.3,0.4-12.3,0.6
	c-1.2,0.1-2.5,0.2-3.7,0.3c-3.7,0.4-7.1,0.7-10.4-0.2c-0.7-0.2-1.5-0.1-2.1,0.3c-0.6,0.4-1,1.1-1.2,1.8l0,0.3
	c-0.1,0.6,0.1,1.3,0.5,1.8c0.5,0.7,1.2,1.1,2.2,1.2c3.6,0.3,9.4-0.3,16.1-1c3.6-0.4,7.5-0.8,11.2-1.1c2.9-0.1,5.8-0.2,8.8-0.3
	C574,159.3,618.3,160.5,626,160.8z"/>
<path class="st1" d="M835.8,247.7c0,0-0.1,0.1-0.1,0.1c-0.1,0.1-0.2,0.1-0.1,0.2c0,0-0.1-0.2-0.2-0.5l0-0.1c0,0,0,0,0,0l0.9-0.1
	C836.1,247.3,836,247.5,835.8,247.7z"/>
<g>
	<path class="st1" d="M770,143.7c-0.2-0.4-0.5-0.8-0.9-1.1c-0.2-0.2-0.4-0.3-0.7-0.4c-1-0.7-2.1-0.9-3.2-0.7c-1.6,0.3-3,1.6-3.6,3.3
		c-0.5,1.6-0.2,3.2,0.9,4.3c0.9,0.9,2.1,1.4,3.3,1.4c0.9,0,1.8-0.3,2.6-0.8c0.7-0.5,1.3-1.2,1.7-2h0c0,0,0,0,0-0.1
		c0.1-0.2,0.2-0.4,0.2-0.6c0-0.1,0.1-0.2,0.1-0.3C770.9,145.6,770.6,144.5,770,143.7z"/>
	<path class="st1" d="M773,104.7c-0.1-1.2-0.2-3.3-1.6-4.9c-1.7-2-4.8-2.4-7.3-1c-1.9,1-3.3,3-3.9,5.4c-0.5,2-0.4,4-0.4,5.8l0,0
		c0,0.1,0,0.1,0,0.1c-0.2,8.4,0.5,16.9,2.3,25.3l0.3,1.6l1.6,0h0c0.2,0,0.4,0,0.6-0.1c0,0,0,0,0.1,0c0.8,0.1,2.5-0.3,3.4-3.1
		c0.5-1.4,0.9-2.8,1.3-4.3C772.4,121.8,773.6,113.2,773,104.7z M766.6,124.9l-1.8,0.5c-0.1-0.7-0.1-1.4-0.2-2.1
		c0.8-0.3,1.7-0.6,2.6-0.9C767,123.2,766.8,124.1,766.6,124.9z M767.9,118c-1.2,0.3-2.4,0.7-3.6,1.1c-0.1-1.1-0.1-2.2-0.2-3.3
		c1.4-0.2,2.8-0.5,4.1-0.8C768.2,116.1,768.1,117,767.9,118z M768.6,110.9c-1.5,0.3-3.1,0.7-4.6,0.9c0-0.6,0-1.1-0.1-1.7
		c0-0.4,0-0.9,0-1.3c1.6-0.1,3.2-0.4,4.7-0.9C768.7,108.9,768.6,109.9,768.6,110.9z M767.7,102.3c0.4,0.3,0.6,0.8,0.8,1.5
		c-1.3,0.5-2.7,0.8-4,1c0.2-0.5,0.4-1,0.7-1.4C765.7,102.4,767.1,101.9,767.7,102.3z M765.2,129.5l0.2-0.1c0,0.1-0.1,0.2-0.1,0.4
		C765.2,129.7,765.2,129.6,765.2,129.5z"/>
</g>
</svg>
