<?xml version="1.0" encoding="utf-8"?>
<!-- Generator: Adobe Illustrator 26.5.0, SVG Export Plug-In . SVG Version: 6.00 Build 0)  -->
<svg version="1.1" id="Layer_1" xmlns="http://www.w3.org/2000/svg" xmlns:xlink="http://www.w3.org/1999/xlink" x="0px" y="0px"
	 viewBox="0 0 393.7 122.55" style="enable-background:new 0 0 393.7 122.55;" xml:space="preserve">
<style type="text/css">
	.st0{fill:#FFFFFF;}
	.st1{fill:#FFB72B;}
</style>
<g>
	<polygon class="st0" points="20.24,5.11 5.54,5.11 5.54,87.91 38.94,87.91 38.94,75.61 20.24,75.61 	"/>
	<path class="st0" d="M69.84,3.41c-13.6,0-22.4,7.5-22.4,20.7v44.8c0,13.2,8.8,20.7,22.4,20.7c13.7,0,22.4-7.5,22.4-20.7v-44.8
		C92.24,10.91,83.54,3.41,69.84,3.41z M77.54,66.21c0,6.8-2.1,10.7-7.7,10.7c-5.4,0-7.7-3.7-7.7-10.7v-39.4c0-7,2.3-10.7,7.7-10.7
		c5.6,0,7.7,3.9,7.7,10.7V66.21z"/>
	<path class="st0" d="M127.14,3.41c-13.6,0-22.4,7.5-22.4,20.7v44.8c0,13.2,8.8,20.7,22.4,20.7c13.7,0,22.4-7.5,22.4-20.7v-15.4
		h-14.7v12.7c0,6.8-2.1,10.7-7.7,10.7c-5.4,0-7.7-3.7-7.7-10.7v-39.4c0-7,2.3-10.7,7.7-10.7c5.6,0,7.7,3.9,7.7,10.7v10h14.7v-12.7
		C149.54,10.91,140.84,3.41,127.14,3.41z"/>
	<path class="st0" d="M169.64,5.11l-12.1,82.81h14.6l2.3-17.5h14.3l2.3,17.5h14.6l-12-82.81H169.64z M175.94,58.21l5.7-42.2
		l5.5,42.2H175.94z"/>
	<polygon class="st0" points="208.34,17.41 219.74,17.41 219.74,87.91 234.44,87.91 234.44,17.41 245.94,17.41 245.94,5.11 
		208.34,5.11 	"/>
	<rect x="255.64" y="5.11" class="st0" width="14.7" height="82.81"/>
	<path class="st0" d="M305.94,3.41c-13.6,0-22.4,7.5-22.4,20.7v44.8c0,13.2,8.8,20.7,22.4,20.7c13.7,0,22.4-7.5,22.4-20.7v-44.8
		C328.34,10.91,319.64,3.41,305.94,3.41z M313.64,66.21c0,6.8-2.1,10.7-7.7,10.7c-5.4,0-7.7-3.7-7.7-10.7v-39.4
		c0-7,2.3-10.7,7.7-10.7c5.6,0,7.7,3.9,7.7,10.7V66.21z"/>
	<polygon class="st0" points="374.83,5.11 375.24,54.31 355.73,5.11 341.53,5.11 341.53,87.91 355.03,87.91 354.63,38.81 
		373.74,87.91 388.34,87.91 388.34,5.11 	"/>
</g>
<g>
	<path class="st1" d="M123.57,101.21c-34.27,1.27-90.39,1.25-110.4,1.06c-4.01-0.04-7.37,1.19-7.63,2.78h0
		c3.07,1.62,7.66,2.67,12.72,2.92h0H21l95.74-2.46c20.15-0.4,40.99-0.81,61.44-0.66c12.95,0.1,26.14,0.42,38.9,0.73
		c14.08,0.35,28.63,0.7,43.03,0.76c19.03,0.08,38.28-0.37,56.93-0.81l63.26-1.48l-0.16-3.44l-127.51-1.12
		c-23.28-0.21-47.35-0.42-71.08-0.03C162.2,99.79,142.56,100.51,123.57,101.21z"/>
	<path class="st1" d="M38.74,114.95c-1.85,0.15-1.25,2.8,0.63,2.82l11.92-0.03c9.59-0.03,19.16-0.21,28.72-0.53
		c16.93-0.57,42.7-0.96,61.86-0.78c19.78,0.18,40.22,0.37,60.29-0.48c0.83-0.04,1.45-0.32,1.41-0.65l-0.21-2.26
		c-0.03-0.33-0.7-0.59-1.52-0.61c-48.52-0.7-97.61-0.16-145.95,1.61C55.02,114.08,38.74,114.95,38.74,114.95z"/>
</g>
</svg>
