<?xml version="1.0" encoding="utf-8"?>
<!-- Generator: Adobe Illustrator 26.5.0, SVG Export Plug-In . SVG Version: 6.00 Build 0)  -->
<svg version="1.1" id="Layer_1" xmlns="http://www.w3.org/2000/svg" xmlns:xlink="http://www.w3.org/1999/xlink" x="0px" y="0px"
	 viewBox="0 0 782 473.4" style="enable-background:new 0 0 782 473.4;" xml:space="preserve">
<style type="text/css">
	.st0{fill:#FFFFFF;}
	.st1{fill:#FF7F3F;}
	.st2{fill:#95C843;}
</style>
<g>
	<path class="st0" d="M36.1,120.7c-15.7,0-24.3,9.2-24.3,22.4v7.1c0,24.8,32.8,20.3,32.8,35.8v2.9c0,8.6-2.9,11.8-8.3,11.8
		c-6.3,0-8.5-4.5-8.5-11.8v-8.3h-16V192c0,13.6,8.9,22.4,24.4,22.4c14.7,0,24.4-8,24.4-22.5v-8.3c0-27.5-32.8-19.7-32.8-36.2V146
		c0-7.8,2.8-11.7,8.4-11.7c4.9,0,8.4,2.8,8.4,11.5v5.9h16V143C60.6,128.9,51,120.7,36.1,120.7z"/>
	<rect x="72.1" y="122.5" class="st0" width="16" height="90.2"/>
	<path class="st0" d="M125.3,120.7c-14.8,0-24.4,8.2-24.4,22.6v50.9c0,12.7,6.6,20.2,19.1,20.2c7.2,0,13.6-2.5,16.8-8.4l1.1,6.9
		h11.9v-50.2h-24.5v13.4h8.5V189c0,8.6-3.1,11.8-8.7,11.8c-4.7,0-8.1-2.3-8.1-10.8v-43.8c0-7.6,2.5-11.7,8.4-11.7
		c6.1,0,8.4,4.2,8.4,11.7v8.2h16v-11.1C149.7,128.9,140.2,120.7,125.3,120.7z"/>
	<polygon class="st0" points="199,176.1 177.8,122.5 162.3,122.5 162.3,212.7 177,212.7 176.6,159.3 197.4,212.7 213.3,212.7 
		213.3,122.5 198.6,122.5 	"/>
	<path class="st0" d="M280.3,189.1c0,7.4-2.3,11.7-8.4,11.7c-5.9,0-8.4-4-8.4-11.7v-66.6h-16V192c0,14.4,9.6,22.5,24.4,22.5
		c14.9,0,24.4-8.2,24.4-22.5v-69.5h-16V189.1z"/>
	<path class="st0" d="M340.5,122.5h-30.9v90.2h16v-33.3h14.9c15.3,0,17.9-10.5,17.9-21.2v-14.4C358.4,133,355.8,122.5,340.5,122.5z
		 M342.4,155.7c0,7.2-1.4,10.3-7.3,10.3h-9.5v-30.1h9.5c5.9,0,7.3,3.2,7.3,10.2V155.7z"/>
	<path class="st0" d="M441.5,175.3v13.8c0,7.4-2.3,11.7-8.4,11.7c-5.9,0-8.4-4-8.4-11.7v-9.4c0-5.3,3.4-8,8.1-8h6.2v-13.2h-6.3
		c-5.4,0-8-3.2-8-8.1V146c0-7.6,2.5-11.7,8.4-11.7c6.1,0,8.4,4.2,8.4,11.7v7.2h15.9v-10.1c0-14.4-9.4-22.6-24.3-22.6
		c-14.8,0-24.4,8.2-24.4,22.6v5.9c0,7.6,3.5,13.3,10.9,15.9c-7.7,2.7-10.9,8.7-10.9,16.2V192c0,14.4,9.6,22.5,24.4,22.5
		c14.9,0,24.3-8.2,24.3-22.5v-10.8l12.2-7.4l-6.6-11.4L441.5,175.3z"/>
</g>
<path class="st0" d="M188.7,240.4c-15.7,0-24.3,9.2-24.3,22.4v7.1c0,24.8,32.8,20.3,32.8,35.8v2.9c0,8.6-2.9,11.8-8.3,11.8
	c-6.3,0-8.5-4.5-8.5-11.8v-8.3h-16v11.4c0,13.6,8.9,22.4,24.4,22.4c14.7,0,24.4-8,24.4-22.5v-8.3c0-27.5-32.8-19.7-32.8-36.2v-1.4
	c0-7.8,2.8-11.7,8.4-11.7c4.9,0,8.4,2.8,8.4,11.5v5.9h16V263C213.3,248.6,203.7,240.4,188.7,240.4z"/>
<polygon class="st0" points="220.2,255.7 232.6,255.7 232.6,332.5 248.7,332.5 248.7,255.7 261.2,255.7 261.2,242.3 220.2,242.3 "/>
<path class="st0" d="M275.6,242.3l-13.2,90.2h15.9l2.5-19.1h15.6l2.5,19.1h15.9l-13.1-90.2H275.6z M282.4,300.1l6.2-46l6,46H282.4z"
	/>
<path class="st0" d="M372.5,306.2c0-8.5-0.3-17.8-12.9-19.2c12.3-1.7,12.9-13,12.9-21.1v-3.1c0-10.8-3.1-20.6-18.2-20.6h-30.6v90.2
	h16v-38.9h9.6c4.6,0,7.2,2.4,7.2,8.8V316c0,5.8,0,13.6,1.2,16.4h15.7c-0.8-2.3-0.9-7.7-0.9-12.7L372.5,306.2L372.5,306.2z
	 M356.5,271.6c0,5.8-1.6,8.6-7.1,8.6h-9.7v-24.5h9.5c5.7,0,7.3,3.1,7.3,9.6L356.5,271.6L356.5,271.6z"/>
<polygon class="st0" points="379.4,255.7 391.8,255.7 391.8,332.5 407.8,332.5 407.8,255.7 420.3,255.7 420.3,242.3 379.4,242.3 "/>
<path class="st0" d="M470.4,240.4c-15.7,0-24.3,9.2-24.3,22.4v7.1c0,24.8,32.8,20.3,32.8,35.8v2.9c0,8.6-2.9,11.8-8.3,11.8
	c-6.3,0-8.5-4.5-8.5-11.8v-8.3h-16v11.4c0,13.6,8.9,22.4,24.4,22.4c14.7,0,24.4-8,24.4-22.5v-8.3c0-27.5-32.8-19.7-32.8-36.2v-1.4
	c0-7.8,2.8-11.7,8.4-11.7c4.9,0,8.4,2.8,8.4,11.5v5.9h16V263C494.9,248.6,485.4,240.4,470.4,240.4z"/>
<path class="st0" d="M514.8,242.3l-13.2,90.2h15.9l2.5-19.1h15.6l2.5,19.1H554l-13.1-90.2H514.8z M521.6,300.1l6.2-46l6,46H521.6z"
	/>
<polygon class="st0" points="582.3,318.8 573.7,242.3 556.9,242.3 569,332.5 595.5,332.5 607.5,242.3 590.6,242.3 "/>
<rect x="616.6" y="242.3" class="st0" width="16" height="90.2"/>
<polygon class="st0" points="682.8,295.9 661.6,242.3 646.1,242.3 646.1,332.5 660.8,332.5 660.4,279 681.2,332.5 697.1,332.5 
	697.1,242.3 682.4,242.3 "/>
<path class="st0" d="M758.7,274.1V263c0-14.4-9.5-22.6-24.4-22.6c-14.8,0-24.4,8.2-24.4,22.6v50.9c0,12.7,6.6,20.2,19.1,20.2
	c7.2,0,13.6-2.5,16.8-8.4l1.1,6.9h11.9v-50.2h-24.5v13.4h8.5v13.1c0,8.6-3,11.8-8.7,11.8c-4.7,0-8.1-2.3-8.1-10.8v-43.8
	c0-7.6,2.5-11.7,8.4-11.7c6.1,0,8.4,4.2,8.4,11.7v8.2h15.9V274.1z"/>
<path class="st1" d="M621.7,441.1l-2.1-3c-0.3,0.3-0.6,0.5-0.9,0.8c-5.6,4-10.9,8.9-15.9,14.7c1.5-26.5-9-45.9-18.2-57.6
	c-12.1-15.4-27.9-25-45.6-28c-3.5-1.7-7.3-1.5-10.9-1.3c-2.2,0.1-4.2,0.2-6.2,0c-3.1-0.4-6.3,0.2-9.5,1.5c-1.6-0.8-3.2-1.5-4.9-2.1
	c-11.3-4.3-23.6-5.3-36.3-4.3c-10,0.4-20,1.9-29.3,3.8c-6.5,1.3-13.2,2.7-19.6,4.2c-18.5,4.1-35.8,12.8-54.8,15.5
	c-14.6,2.1-31.4,0.4-38.4-15.6c-1.9-4.4-2.7-9.2-3.5-14c-0.1-0.6-0.3-1.3-0.5-1.9c9.2,0.2,18.3,0.5,27.2,0.8
	c26.7,0.8,53.9,1.7,81.2,1.6c2,0,164.5,2.4,166.4,2.4c0.1,0,0.2,0,0.3,0c19.6,0,82.5-4.4,102.8-6l-0.4-5l-42.7,3.6l0,0
	c-19.9,1.6-40,2.2-60,2.4c-23.3,0-207.4-3.3-230.2-4.2c-12.4-0.5-25.2-0.9-37.8-1.3c-21-0.6-38.1-0.6-53.8-0.2c-0.6,0-1.3,0-1.9,0.1
	c-0.6,0-1.3,0-1.9,0c-2.7,0-5.7,0.1-8.8,0.4c-5,0.2-9.8,0.5-14.5,0.8c-1.5,0.1-2.9,0.3-4.4,0.4c-4.3,0.5-8.4,0.9-12.2-0.2
	c-0.9-0.2-1.8-0.1-2.5,0.4s-1.2,1.3-1.4,2.2l-0.1,0.4c-0.1,0.8,0.1,1.5,0.6,2.1c0.6,0.8,1.5,1.3,2.6,1.4c4.2,0.4,11.1-0.4,19-1.3
	c4.3-0.5,8.9-1,13.3-1.3c3.4-0.1,6.9-0.3,10.4-0.4c14.7,0,29.6,0.3,44.4,0.7c-0.1,0.6-0.2,1.2-0.2,1.7c0,9.6,4.6,18.8,11.6,25
	c23.2,20.8,54.2,4,79.4-2.3c3.1-0.8,6.2-1.5,9.3-2.3c16.7-4.2,33.8-8.6,50-9.8c11.6-0.4,23.1,0.9,33.4,5.3
	c-4.2,1.8-8.2,4.2-11.9,7.2c-10.8,8.8-19.5,24-21.7,37.8c0,0.2-0.1,0.5-0.1,0.7c-0.4,1.2-0.8,2.5-1,3.7c-1.3,6.6-0.1,12.9,3.5,18.8
	c0.6,0.9,1.2,1.8,1.8,2.7c0.6,1,1.3,1.9,2.1,2.8c2.6,2.9,5.7,5.1,9.5,6.6c3.7,1.7,7.7,2.5,11.9,2.4c4.7,0.3,11.3,0.1,18.2-3.6
	c7.4-3.9,14.2-11.6,18.1-20.4c7.5-16.8,4-34.6-2.7-44.9c-3.6-5.4-8.1-10-13.5-13.6c1-0.1,2.1-0.2,3.1-0.3c5.4-0.3,10.8-0.1,15.9,0.8
	c1.7,0.9,3.5,1.9,5.4,2.9c3.1,1.7,6.2,3.5,9.5,5c15,7.1,27.2,18.9,36.3,35.1c6.1,10.9,9.6,23.2,10.2,36.5c-0.4-0.8-0.8-1.5-1.3-2.1
	c-4.5-6.4-10.6-10.4-17.7-11.6l-1.6,4c8.7,3.3,15.6,11,19.6,21.7c0.6,1.5,1.8,2.3,3.4,2.2c1.1-0.1,2.2-0.7,3.1-1.7
	c0.4-0.5,0.8-1,1.1-1.6c4-7.8,9.3-14.9,15.1-20.1c0.1-0.1,0.2-0.2,0.3-0.3l0.1-0.1l0,0l0.5-0.4v-0.1
	C621.4,441.4,621.5,441.2,621.7,441.1z M489.4,385.9c1.6-1.7,3.1-3.2,4.6-4.4c1.2-0.9,2.3-1.8,3.6-2.6c-6.5,6.4-12.7,14.4-18.2,21.9
	c-0.2,0.3-0.4,0.6-0.7,0.9C481.7,395.5,485.5,390.1,489.4,385.9z M525.5,389c3.7,5.4,9.4,16.6,5.5,31.4
	c-4.3,16.5-18.2,27.8-29.2,29.2c-1,0.1-2,0.2-2.9,0.2c-0.4,0-0.7-0.1-1.1-0.1c-3.7-0.3-6.9-1-9.6-2.1c-3.9-1.8-7.4-4.6-10.3-8.4
	c-3.6-5.7-5-13.7-3.8-22.1c1.8-5.1,5-9.8,8.3-14.3c7.5-10.3,17.5-23,27.1-28.9C515.5,377.5,521,382.4,525.5,389z M600.4,456.6
	c0,0.1-0.1,0.1-0.1,0.1c-0.1,0.1-0.2,0.2-0.2,0.2s-0.2-0.2-0.2-0.6v-0.1c0,0,0,0,0-0.1l1-0.2C600.8,456.1,600.6,456.3,600.4,456.6z"
	/>
<g>
	<path class="st2" d="M274.1,44.9c0-5.3-1.6-12.4-10-10.5c-4.7,1.1-8.6,11.4-10,13.5c-6.5,9.9-10.7,19.1-12.7,29.5
		c-0.6,2.8,2.1,10.2,9.9,8.1c4.5-1.2,6.7-9.2,8.2-11.8c4.6-8,11.7-15.7,14-24C273.8,48.9,274.1,47,274.1,44.9z"/>
	<path class="st2" d="M181.2,83c11.5-2.3,4.2-21.9,3.9-27.1c-0.8-14.2-1.6-28.8-5.6-42.6c-1.6-5.4-10.7,0.3-11.6,2.1
		c-3.4,7.1-0.3,17.5,0.3,24.7c0.5,5.7-2.4,44.3,12,43C180.5,83.1,180.8,83.1,181.2,83z"/>
	<path class="st2" d="M317.1,93.2c8.7-5.2,15.6-13.4,20.2-19.8c1.4-1.9,2.5-4.4,0-5.9c-1-0.6-2.5-0.9-4-1c-5.9-0.2-10.5,3-13.8,6.1
		c-5.6,5.2-10.4,10.8-14.1,16.6c-1.2,1.9-2.2,4.4,0.2,5.9c2.3,1.4,6.2,0.9,8.7-0.4C315.3,94.2,316.2,93.7,317.1,93.2z"/>
	<path class="st2" d="M92.7,42.8C93,54.1,98.9,68.1,104,78.7c1.5,3.1,4.1,6.8,8,7.3c1.7,0.2,3.2-0.3,4.4-1c4.9-3.1,4.1-9.6,2.5-15.2
		c-2.7-9.6-6.6-19.1-11.6-28.4c-1.7-3.1-4.3-6.7-8.2-7.2c-3.6-0.4-6,2.4-6.3,5.3C92.7,40.5,92.7,41.7,92.7,42.8z"/>
	<path class="st2" d="M45.2,96.2c3.6,2.2,9,4.3,11.1,0c1.2-2.4-4.2-8.2-5-9.6c-4-6.7-8.5-12.2-14.7-17.2c-1.7-1.4-7.7-3.2-9.4,0.9
		c-1,2.4,3.4,6.5,4.6,8.2c3.5,5.1,5.8,11.2,10.4,15.5C42.7,94.5,43.8,95.3,45.2,96.2z"/>
</g>
</svg>
