<?xml version="1.0" encoding="utf-8"?>
<!-- Generator: Adobe Illustrator 26.5.0, SVG Export Plug-In . SVG Version: 6.00 Build 0)  -->
<svg version="1.1" id="Layer_1" xmlns="http://www.w3.org/2000/svg" xmlns:xlink="http://www.w3.org/1999/xlink" x="0px" y="0px"
	 viewBox="0 0 1116.8 344.7" style="enable-background:new 0 0 1116.8 344.7;" xml:space="preserve">
<style type="text/css">
	.st0{fill:#FFFFFF;}
	.st1{fill:#FF7F3F;}
</style>
<path class="st0" d="M34.8,119.4c-15.7,0-24.3,9.2-24.3,22.4v7.1c0,24.8,32.8,20.3,32.8,35.8v2.9c0,8.6-2.9,11.8-8.3,11.8
	c-6.3,0-8.5-4.5-8.5-11.8v-8.3h-16v11.4c0,13.6,8.9,22.4,24.4,22.4c14.7,0,24.4-8,24.4-22.5v-8.3c0-27.5-32.8-19.7-32.8-36.2v-1.4
	c0-7.8,2.8-11.7,8.4-11.7c4.9,0,8.4,2.8,8.4,11.5v5.9h16V142C59.3,127.6,49.7,119.4,34.8,119.4z"/>
<rect x="70.8" y="121.3" class="st0" width="16" height="90.2"/>
<path class="st0" d="M124,119.4c-14.8,0-24.4,8.2-24.4,22.6v50.9c0,12.7,6.6,20.2,19.1,20.2c7.2,0,13.6-2.5,16.8-8.4l1.1,6.9h11.9
	v-50.2H124v13.4h8.5v13.1c0,8.6-3.1,11.8-8.7,11.8c-4.7,0-8.1-2.3-8.1-10.8v-43.8c0-7.6,2.5-11.7,8.4-11.7c6.1,0,8.4,4.2,8.4,11.7
	v8.2h16V142C148.4,127.6,138.9,119.4,124,119.4z"/>
<polygon class="st0" points="197.7,174.9 176.5,121.3 161,121.3 161,211.5 175.7,211.5 175.3,158 196.1,211.5 212,211.5 212,121.3 
	197.3,121.3 "/>
<path class="st0" d="M279,187.8c0,7.4-2.3,11.7-8.4,11.7c-5.9,0-8.4-4-8.4-11.7v-66.6h-16v69.5c0,14.4,9.6,22.5,24.4,22.5
	c14.9,0,24.4-8.2,24.4-22.5v-69.5h-16V187.8z"/>
<path class="st0" d="M339.2,121.3h-30.9v90.2h16v-33.3h14.9c15.3,0,17.9-10.5,17.9-21.2v-14.4C357.1,131.7,354.5,121.3,339.2,121.3z
	 M341.1,154.4c0,7.2-1.4,10.3-7.3,10.3h-9.5v-30.1h9.5c5.9,0,7.3,3.2,7.3,10.2V154.4z"/>
<path class="st0" d="M440.2,174v13.8c0,7.4-2.3,11.7-8.4,11.7c-5.9,0-8.4-4-8.4-11.7v-9.4c0-5.3,3.4-8,8.1-8h6.2v-13.2h-6.3
	c-5.4,0-8-3.2-8-8.1v-4.4c0-7.6,2.5-11.7,8.4-11.7c6.1,0,8.4,4.2,8.4,11.7v7.2h15.9V142c0-14.4-9.4-22.6-24.3-22.6
	c-14.8,0-24.4,8.2-24.4,22.6v5.9c0,7.6,3.5,13.3,10.9,15.9c-7.7,2.7-10.9,8.7-10.9,16.2v10.8c0,14.4,9.6,22.5,24.4,22.5
	c14.9,0,24.3-8.2,24.3-22.5V180l12.2-7.4l-6.6-11.4L440.2,174z"/>
<path class="st0" d="M535,119.4c-15.7,0-24.3,9.2-24.3,22.4v7.1c0,24.8,32.8,20.3,32.8,35.8v2.9c0,8.6-2.9,11.8-8.3,11.8
	c-6.3,0-8.5-4.5-8.5-11.8v-8.3h-16v11.4c0,13.6,8.9,22.4,24.4,22.4c14.7,0,24.4-8,24.4-22.5v-8.3c0-27.5-32.8-19.7-32.8-36.2v-1.4
	c0-7.8,2.8-11.7,8.4-11.7c4.9,0,8.4,2.8,8.4,11.5v5.9h16V142C559.5,127.6,549.9,119.4,535,119.4z"/>
<polygon class="st0" points="566.4,134.7 578.8,134.7 578.8,211.5 594.9,211.5 594.9,134.7 607.4,134.7 607.4,121.3 566.4,121.3 "/>
<path class="st0" d="M621.8,121.3l-13.2,90.2h15.9l2.5-19.1h15.6l2.5,19.1H661l-13.1-90.2H621.8z M628.6,179.1l6.2-46l6,46H628.6z"
	/>
<path class="st0" d="M718.7,185.2c0-8.5-0.3-17.8-12.9-19.2c12.3-1.7,12.9-13,12.9-21.1v-3.1c0-10.8-3.1-20.6-18.2-20.6h-30.6v90.2
	h16v-38.9h9.6c4.6,0,7.2,2.4,7.2,8.8V195c0,5.8,0,13.6,1.2,16.4h15.7c-0.8-2.3-0.9-7.7-0.9-12.7V185.2z M702.7,150.6
	c0,5.8-1.6,8.6-7.1,8.6h-9.7v-24.5h9.5c5.7,0,7.3,3.1,7.3,9.6V150.6z"/>
<polygon class="st0" points="725.6,134.7 738,134.7 738,211.5 754,211.5 754,134.7 766.5,134.7 766.5,121.3 725.6,121.3 "/>
<path class="st0" d="M816.6,119.4c-15.7,0-24.3,9.2-24.3,22.4v7.1c0,24.8,32.8,20.3,32.8,35.8v2.9c0,8.6-2.9,11.8-8.3,11.8
	c-6.3,0-8.5-4.5-8.5-11.8v-8.3h-16v11.4c0,13.6,8.9,22.4,24.4,22.4c14.7,0,24.4-8,24.4-22.5v-8.3c0-27.5-32.8-19.7-32.8-36.2v-1.4
	c0-7.8,2.8-11.7,8.4-11.7c4.9,0,8.4,2.8,8.4,11.5v5.9h16V142C841.1,127.6,831.6,119.4,816.6,119.4z"/>
<path class="st0" d="M861,121.3l-13.2,90.2h15.9l2.5-19.1h15.6l2.5,19.1h15.9l-13.1-90.2H861z M867.8,179.1l6.2-46l6,46H867.8z"/>
<polygon class="st0" points="928.5,197.7 919.9,121.3 903.1,121.3 915.2,211.5 941.7,211.5 953.7,121.3 936.8,121.3 "/>
<rect x="962.8" y="121.3" class="st0" width="16" height="90.2"/>
<polygon class="st0" points="1029,174.9 1007.8,121.3 992.3,121.3 992.3,211.5 1007,211.5 1006.6,158 1027.4,211.5 1043.3,211.5 
	1043.3,121.3 1028.6,121.3 "/>
<path class="st0" d="M1104.9,153.1V142c0-14.4-9.5-22.6-24.4-22.6c-14.8,0-24.4,8.2-24.4,22.6v50.9c0,12.7,6.6,20.2,19.1,20.2
	c7.2,0,13.6-2.5,16.8-8.4l1.1,6.9h11.9v-50.2h-24.5v13.4h8.5v13.1c0,8.6-3.1,11.8-8.7,11.8c-4.7,0-8.1-2.3-8.1-10.8v-43.8
	c0-7.6,2.5-11.7,8.4-11.7c6.1,0,8.4,4.2,8.4,11.7v8.2h15.9V153.1z"/>
<path class="st1" d="M967.9,320.1l-2.1-3c-0.3,0.3-0.6,0.5-0.9,0.8c-5.6,4-10.9,8.9-15.9,14.7c1.5-26.5-9-45.9-18.2-57.6
	c-12.1-15.4-27.9-25-45.6-28c-3.5-1.7-7.3-1.5-10.9-1.3c-2.2,0.1-4.2,0.2-6.2,0c-3.1-0.4-6.3,0.2-9.5,1.5c-1.6-0.8-3.2-1.5-4.9-2.1
	c-11.3-4.3-23.6-5.3-36.3-4.3c-10,0.4-20,1.9-29.3,3.8c-6.5,1.3-13.2,2.7-19.6,4.2c-18.5,4.1-35.8,12.8-54.8,15.5
	c-14.6,2.1-31.4,0.4-38.4-15.6c-1.9-4.4-2.7-9.2-3.5-14c-0.1-0.6-0.3-1.3-0.5-1.9c9.2,0.2,18.3,0.5,27.2,0.8
	c26.7,0.8,53.9,1.7,81.2,1.6c2,0,164.5,2.4,166.4,2.4c0.1,0,0.2,0,0.3,0c19.6,0,82.5-4.4,102.8-6l-0.4-5l-42.7,3.6l0,0
	c-19.9,1.6-40,2.2-60,2.4c-23.3,0-207.4-3.3-230.2-4.2c-12.4-0.5-25.2-0.9-37.8-1.3c-21-0.6-38.1-0.6-53.8-0.2c-0.6,0-1.3,0-1.9,0.1
	c-0.6,0-1.3,0-1.9,0c-2.7,0-5.7,0.1-8.8,0.4c-5,0.2-9.8,0.5-14.5,0.8c-1.5,0.1-2.9,0.3-4.4,0.4c-4.3,0.5-8.4,0.9-12.2-0.2
	c-0.9-0.2-1.8-0.1-2.5,0.4s-1.2,1.3-1.4,2.2l-0.1,0.4c-0.1,0.8,0.1,1.5,0.6,2.1c0.6,0.8,1.5,1.3,2.6,1.4c4.2,0.4,11.1-0.4,19-1.3
	c4.3-0.5,8.9-1,13.3-1.3c3.4-0.1,6.9-0.3,10.4-0.4c14.7,0,29.6,0.3,44.4,0.7c-0.1,0.6-0.2,1.2-0.2,1.7c0,9.6,4.6,18.8,11.6,25
	c23.2,20.8,54.2,4,79.4-2.3c3.1-0.8,6.2-1.5,9.3-2.3c16.7-4.2,33.8-8.6,50-9.8c11.6-0.4,23.1,0.9,33.4,5.3
	c-4.2,1.8-8.2,4.2-11.9,7.2c-10.8,8.8-19.5,24-21.7,37.8c0,0.2-0.1,0.5-0.1,0.7c-0.4,1.2-0.8,2.5-1,3.7c-1.3,6.6-0.1,12.9,3.5,18.8
	c0.6,0.9,1.2,1.8,1.8,2.7c0.6,1,1.3,1.9,2.1,2.8c2.6,2.9,5.7,5.1,9.5,6.6c3.7,1.7,7.7,2.5,11.9,2.4c4.7,0.3,11.3,0.1,18.2-3.6
	c7.4-3.9,14.2-11.6,18.1-20.4c7.5-16.8,4-34.6-2.7-44.9c-3.6-5.4-8.1-10-13.5-13.6c1-0.1,2.1-0.2,3.1-0.3c5.4-0.3,10.8-0.1,15.9,0.8
	c1.7,0.9,3.5,1.9,5.4,2.9c3.1,1.7,6.2,3.5,9.5,5c15,7.1,27.2,18.9,36.3,35.1c6.1,10.9,9.6,23.2,10.2,36.5c-0.4-0.8-0.8-1.5-1.3-2.1
	c-4.5-6.4-10.6-10.4-17.7-11.6l-1.6,4c8.7,3.3,15.6,11,19.6,21.7c0.6,1.5,1.8,2.3,3.4,2.2c1.1-0.1,2.2-0.7,3.1-1.7
	c0.4-0.5,0.8-1,1.1-1.6c4-7.8,9.3-14.9,15.1-20.1c0.1-0.1,0.2-0.2,0.3-0.3l0.1-0.1l0,0l0.5-0.4v-0.1
	C967.6,320.4,967.8,320.2,967.9,320.1z M835.6,264.8c1.6-1.7,3.1-3.2,4.6-4.4c1.2-0.9,2.3-1.8,3.6-2.6c-6.5,6.4-12.7,14.4-18.2,21.9
	c-0.2,0.3-0.4,0.6-0.7,0.9C827.9,274.5,831.7,269.1,835.6,264.8z M871.7,268c3.7,5.4,9.4,16.6,5.5,31.4
	c-4.3,16.5-18.2,27.8-29.2,29.2c-1,0.1-2,0.2-2.9,0.2c-0.4,0-0.7-0.1-1.1-0.1c-3.7-0.3-6.9-1-9.6-2.1c-3.9-1.8-7.4-4.6-10.3-8.4
	c-3.6-5.7-5-13.7-3.8-22.1c1.8-5.1,5-9.8,8.3-14.3c7.5-10.3,17.5-23,27.1-28.9C861.7,256.5,867.2,261.4,871.7,268z M946.6,335.5
	c0,0.1-0.1,0.1-0.1,0.1c-0.1,0.1-0.2,0.2-0.2,0.2s-0.2-0.2-0.2-0.6v-0.1c0,0,0,0,0-0.1l1-0.2C947,335.1,946.8,335.3,946.6,335.5z"/>
<path class="st1" d="M277,44.4c0-5.5-1.6-12.7-10-10.7c-4.7,1.1-8.6,11.7-10,13.9c-6.5,10.2-10.7,19.6-12.7,30.3
	c-0.6,2.9,2.1,10.5,9.9,8.3c4.5-1.3,6.7-9.4,8.2-12.1c4.6-8.2,11.7-16.1,14-24.6C276.7,48.4,277,46.5,277,44.4z"/>
<path class="st1" d="M184,83.5c11.5-2.3,4.2-22.4,3.9-27.8c-0.8-14.5-1.6-29.6-5.6-43.7c-1.6-5.5-10.7,0.3-11.6,2.1
	c-3.4,7.2-0.3,18,0.3,25.4c0.5,5.8-2.4,45.5,12,44.2C183.4,83.6,183.7,83.5,184,83.5z"/>
<path class="st1" d="M319.9,93.9c8.7-5.3,15.6-13.7,20.2-20.3c1.4-2,2.5-4.5,0-6c-1-0.6-2.5-0.9-4-1c-5.9-0.2-10.5,3.1-13.8,6.2
	c-5.6,5.3-10.4,11-14.1,17c-1.2,2-2.2,4.5,0.2,6c2.3,1.4,6.2,0.9,8.7-0.4C318.1,94.9,319,94.4,319.9,93.9z"/>
<path class="st1" d="M95.6,42.2c0.3,11.6,6.1,26,11.3,36.8c1.5,3.2,4.1,7,8,7.5c1.7,0.2,3.2-0.3,4.4-1c4.9-3.2,4.1-9.9,2.5-15.7
	c-2.7-9.8-6.6-19.6-11.6-29.2c-1.7-3.2-4.3-6.9-8.2-7.4c-3.6-0.4-6,2.5-6.3,5.4C95.6,39.8,95.6,41,95.6,42.2z"/>
<path class="st1" d="M48,96.9c3.6,2.2,9,4.4,11.1,0c1.2-2.5-4.2-8.4-5-9.9c-4-6.9-8.5-12.5-14.7-17.7c-1.7-1.4-7.7-3.3-9.4,0.9
	c-1,2.4,3.4,6.7,4.6,8.4C38.1,84,40.4,90.3,45,94.7C45.5,95.2,46.6,96.1,48,96.9z"/>
</svg>
