<?xml version="1.0" encoding="utf-8"?>
<!-- Generator: Adobe Illustrator 26.5.0, SVG Export Plug-In . SVG Version: 6.00 Build 0)  -->
<svg version="1.1" id="Layer_1" xmlns="http://www.w3.org/2000/svg" xmlns:xlink="http://www.w3.org/1999/xlink" x="0px" y="0px"
	 viewBox="0 0 695.87 309.32" style="enable-background:new 0 0 695.87 309.32;" xml:space="preserve">
<style type="text/css">
	.st0{fill:#95C843;}
	.st1{fill:#FCB528;}
</style>
<g>
	<g>
		<g>
			<path class="st0" d="M60.55,83.52l13.65-5.45l23.66,59.26c4.89,12.26-0.41,22.45-13.13,27.53c-12.63,5.04-23.58,1.34-28.48-10.92
				L32.6,94.68l13.65-5.45l22.66,56.75c2.59,6.5,6.1,9.08,11.12,7.08c5.2-2.08,5.71-6.48,3.18-12.79L60.55,83.52z"/>
			<path class="st0" d="M143.2,142.67l-32.88-41.16l15.04,46.75l-12.89,4.03L87.76,73.25l13.55-4.24l33.29,41.14l-15.07-46.84
				l12.89-4.03l24.71,79.03L143.2,142.67z"/>
			<path class="st0" d="M165.79,136.2l-19.83-80.39l14.27-3.52l16.89,68.45l18.16-4.48l2.95,11.94L165.79,136.2z"/>
			<path class="st0" d="M202.93,127.22l-15.79-81.28l34.95-6.79l2.35,12.08l-20.52,3.98l4.12,21.2l19.93-3.87l2.35,12.07
				l-19.93,3.87l4.63,23.85l20.52-3.99l2.34,12.07L202.93,127.22z"/>
			<path class="st0" d="M274.38,115.12l-4.69-17.02l-14.16,1.97l0.13,17.65l-14.46,2.01l0.57-83.68l23.77-3.31l23.3,80.36
				L274.38,115.12z M255.15,45.2l0.17,42.59l11.09-1.54L255.15,45.2z"/>
			<path class="st0" d="M334.84,90.16c1.12,13.35-7.14,21.37-20.59,22.5c-14.15,1.18-23-6.2-24.04-18.66l-0.88-10.46l14.65-1.23
				l0.63,7.57c0.56,6.68,2.89,10.6,8.67,10.11c4.88-0.41,7.33-3.52,6.67-11.4l-0.22-2.69c-1.19-14.25-30.84-7.55-32.74-30.27
				l-0.54-6.48c-1.02-12.16,6.15-21.19,20.5-22.39c13.65-1.14,23.05,5.6,24.15,18.75l0.67,7.97l-14.65,1.23l-0.45-5.38
				c-0.67-7.97-4.07-10.3-8.56-9.92c-5.08,0.43-7.38,4.13-6.78,11.3l0.11,1.29c1.26,15.05,30.66,5.46,32.76,30.57L334.84,90.16z"/>
			<path class="st0" d="M373.81,107.85l-1.02-36.48l-15.39,0.43l1.02,36.48l-14.69,0.41l-2.3-82.76l14.69-0.41l0.95,33.98
				l15.39-0.43l-0.95-33.98l14.69-0.41l2.3,82.76L373.81,107.85z"/>
			<path class="st0" d="M423.22,108.15l1.02-25.98l-13.66-57.38l13.99,0.55l7.59,38.63l10.6-37.91l14.09,0.55L438.7,83.44
				l-0.99,25.28L423.22,108.15z"/>
			<path class="st0" d="M457.64,90.59l3.96-44.62c1.17-13.15,10.6-19.84,24.14-18.64c13.65,1.21,21.65,9.45,20.48,22.6l-3.96,44.62
				c-1.17,13.15-10.5,19.85-24.14,18.63C464.58,111.98,456.47,103.73,457.64,90.59z M491.35,51.32c0.6-6.77-1.14-10.84-6.72-11.34
				c-5.38-0.48-8,3-8.62,9.98l-3.49,39.24c-0.62,6.97,1.34,10.86,6.72,11.34c5.58,0.5,8.01-3.2,8.61-9.98L491.35,51.32z"/>
			<path class="st0" d="M550.4,36.79l14.55,2.11l-9.14,63.14c-1.89,13.06-11.58,19.24-25.13,17.28
				c-13.46-1.95-21.09-10.63-19.2-23.69l9.14-63.14l14.55,2.11l-8.75,60.47c-1,6.93,0.74,10.92,6.09,11.69
				c5.54,0.8,8.18-2.76,9.15-9.49L550.4,36.79z"/>
			<path class="st0" d="M592.44,128.56c-0.56-2.77,0.86-9.82,1.92-15.02l2.48-12.25c1.17-5.78-0.75-8.41-4.86-9.25l-8.62-1.74
				l-7.08,34.99l-14.41-2.91l16.42-81.15l27.54,5.57c13.62,2.76,14.58,12.13,12.62,21.83l-0.55,2.75
				c-1.49,7.35-4.02,17.35-15.41,16.67c11.01,3.55,9.62,11.94,8.08,19.59l-2.46,12.15c-0.91,4.51-1.81,9.43-1.54,11.63
				L592.44,128.56z M603.6,67.87c1.19-5.88,0.27-8.92-4.82-9.95l-8.53-1.72l-4.46,22.05l8.72,1.76c4.9,0.99,6.89-1.26,7.94-6.45
				L603.6,67.87z"/>
		</g>
		<g>
			<path class="st0" d="M157.54,214.48l14.14-4l4.19,14.82c3.59,12.7-2.74,22.28-15.93,26.01c-13.09,3.7-23.59-1.13-27.18-13.83
				l-12.18-43.11c-3.59-12.7,2.84-22.31,15.93-26.01c13.18-3.72,23.59,1.13,27.18,13.83l3.45,12.22l-14.15,4l-2.72-9.62
				c-1.85-6.54-4.93-9.73-10.32-8.2c-5.2,1.47-6.4,5.65-4.5,12.39l10.71,37.91c1.9,6.74,5.12,9.67,10.32,8.2
				c5.39-1.52,6.35-5.85,4.5-12.39L157.54,214.48z"/>
			<path class="st0" d="M218.75,235.27c-1.62-2.31-3.14-9.35-4.26-14.53l-2.64-12.22c-1.24-5.77-4.05-7.41-8.16-6.53l-8.6,1.86
				l7.53,34.9l-14.37,3.1l-17.46-80.94l27.47-5.93c13.59-2.93,18.22,5.28,20.31,14.95l0.59,2.74c1.58,7.33,3.27,17.51-7.44,21.45
				c11.52-1.16,13.6,7.09,15.25,14.71l2.62,12.12c0.97,4.5,2.12,9.36,3.25,11.27L218.75,235.27z M204.66,175.19
				c-1.26-5.87-3.32-8.29-8.4-7.19l-8.5,1.83l4.75,21.99l8.7-1.88c4.89-1.05,5.81-3.91,4.69-9.09L204.66,175.19z"/>
			<path class="st0" d="M239.68,231.14l-13.03-81.77l35.16-5.6l1.93,12.15l-20.64,3.29l3.4,21.33l20.05-3.19l1.94,12.15l-20.05,3.19
				l3.82,24l20.64-3.29l1.94,12.15L239.68,231.14z"/>
			<path class="st0" d="M311.61,221.36l-4.16-17.15l-14.22,1.53l-0.41,17.64l-14.52,1.56l3.16-83.61l23.86-2.57l20.8,81.03
				L311.61,221.36z M294.56,150.89l-1.15,42.56l11.13-1.2L294.56,150.89z"/>
			<path class="st0" d="M335.93,219.32l-4.48-70.36l-11.38,0.72l-0.78-12.28l37.53-2.39l0.78,12.28l-11.48,0.73l4.48,70.36
				L335.93,219.32z"/>
			<path class="st0" d="M367.89,217.58l-2.49-82.76l14.69-0.44l2.49,82.76L367.89,217.58z"/>
			<path class="st0" d="M399.42,216.85l-10.48-82.88l15.4,0.12l7.37,70.26l8.13-70.14l15.5,0.12l-11.62,82.72L399.42,216.85z"/>
			<path class="st0" d="M440.57,217.57l3.73-82.71l14.68,0.66l-3.73,82.71L440.57,217.57z"/>
			<path class="st0" d="M472.45,219.29l5.5-70.29l-11.37-0.89l0.96-12.26l37.49,2.93l-0.96,12.26l-11.46-0.9l-5.5,70.29
				L472.45,219.29z"/>
			<path class="st0" d="M513.89,223.11l3.15-25.81l-8.9-58.31l13.9,1.7l4.4,39.12l13.67-36.92l14,1.71l-22.75,55.15l-3.06,25.12
				L513.89,223.11z"/>
		</g>
	</g>
	<g>
		<g>
			<path class="st1" d="M33.39,241.32l-0.95-0.54l-0.36-1.03c-0.41-1.2-0.6-1.75,5.36-16.18c2.92-7.08,5.94-14.07,6.48-15.25
				c4.37-9.47,9.06-18.29,13.95-26.22c0.52-0.85,1.46-1.26,2.44-1.08c0.99,0.18,1.84,0.92,2.22,1.94c0.41,1.09,0.59,2.19,0.61,3.26
				c0.06,3.34-1.42,6.42-2.24,8.11c-6.99,14.52-13.04,29.08-18.03,41.41c-0.57,1.42-1.22,3.02-2.44,4.32
				C38.59,242.04,35.68,242.57,33.39,241.32z"/>
		</g>
		<g>
			<path class="st1" d="M69.91,205.6c0.14-6.26-0.05-13.15,1.97-19.38c5.91-0.34,3.57,28.61,3.65,33.45
				c0.02,1.13,0.02,2.32-0.79,3.36c-0.81,1.04-2.74,1.79-4.04,1.24C67.91,223.09,69.84,208.42,69.91,205.6z"/>
		</g>
		<g>
			<path class="st1" d="M23.93,203.21c-0.75,0.8-1.5,1.67-2.3,2.59c-2.31,2.69-4.71,5.47-7.72,7.17c-3.04,1.71-6.3,1.37-8.73-0.93
				L5,211.84c-1.57-1.84-3.49-5.68,1.24-10.67c1.51-1.6,3.37-3,4.85-4.13c0.66-0.5,1.23-0.93,1.65-1.29
				c1.64-1.4,3.33-2.78,4.96-4.12c2.03-1.66,4.13-3.38,6.14-5.13c1.36-1.19,2.76-2.45,4.11-3.68c3.92-3.56,7.98-7.25,12.4-10.07
				c1.18-0.76,7.22-4.39,9.79-1.71c0.42,0.44,0.81,1.07,0.91,1.93c0.09,0.79-0.07,1.78-0.67,3c-1.44,2.92-3.76,4.92-6.01,6.86
				c-0.51,0.44-1.01,0.87-1.49,1.31c-2.68,2.43-5.5,5.14-8.62,8.29C30.86,195.87,27.57,199.34,23.93,203.21z"/>
		</g>
	</g>
	<g>
		<g>
			<path class="st1" d="M652.03,26.15c1.85-2.99,3.77-7.34,0.45-8.05c-1.88-0.4-6.67,4.56-7.87,5.49
				c-5.49,4.19-10.02,8.46-14.28,13.9c-1.17,1.49-2.87,6.2,0.36,6.68c1.84,0.27,5.3-3.73,6.71-4.91c4.21-3.52,9.15-6.33,12.78-10.51
				C650.56,28.31,651.29,27.34,652.03,26.15z"/>
		</g>
		<g>
			<path class="st1" d="M692.16,34.37c-3.26-5.18-18.07,2.47-22.25,3.7c-11.26,3.34-22.91,6.79-33.45,11.61
				c-4.13,1.89,3.88,4.36,5.39,4.4c6.09,0.19,11.81-2.64,17.5-4.42c4.49-1.4,35.86-8.04,33.03-14.85
				C692.33,34.66,692.25,34.51,692.16,34.37z"/>
		</g>
		<g>
			<path class="st1" d="M663.31,61.5c-5.1-1.91-11.84-2.16-16.96-2.03c-1.53,0.04-3.38,0.37-3.89,1.81c-0.22,0.61-0.12,1.3,0.12,1.9
				c1,2.47,4.02,3.34,6.66,3.73c4.51,0.67,9.1,0.86,13.66,0.56c1.52-0.1,3.35-0.48,3.85-1.92c0.47-1.35-0.62-2.79-1.9-3.41
				C664.35,61.91,663.84,61.69,663.31,61.5z"/>
		</g>
	</g>
	<g>
		<path class="st1" d="M347.46,274.7c-13.1,0.87-26.22,1.56-39.34,1.94c-4,0.12-5.36-2.83-1.84-3.98
			c40.02-13.07,87.32-14.54,130.67-23.07c0.47-0.09,0.91-0.24,1.29-0.42c57.4-27.38-107.41-11.62-127.92-7.5
			c-17.18,1.03-213,26.53-154.1,32.23c0,0,0.01,0,0.01,0c71.99-13.08,150.09-27.53,225.05-29.48c4.51-0.12,5.32,3.49,0.93,4.19
			c-39.53,6.28-86.37,9.81-116.96,28.99c-0.52,0.33-0.87,0.74-0.98,1.17c-3.82,15.32,85.16,2.9,105.18,1.97
			c0.1,0,0.19-0.01,0.29-0.02c50.37-4.76,101.2-7.53,151.97-8.26c3.98,0.11,9.71-0.44,12.3-2.27c1.67-1.18,0.64-2.89-1.86-3.29
			c-55.34-8.88-125.01,6.05-184.5,7.8C347.6,274.69,347.53,274.7,347.46,274.7z"/>
	</g>
</g>
</svg>
