<?xml version="1.0" encoding="utf-8"?>
<!-- Generator: Adobe Illustrator 26.5.0, SVG Export Plug-In . SVG Version: 6.00 Build 0)  -->
<svg version="1.1" id="Layer_1" xmlns="http://www.w3.org/2000/svg" xmlns:xlink="http://www.w3.org/1999/xlink" x="0px" y="0px"
	 viewBox="0 0 331.1 46.2" style="enable-background:new 0 0 331.1 46.2;" xml:space="preserve">
<style type="text/css">
	.st0{fill:#FFFFFF;}
</style>
<g>
	<path class="st0" d="M23.6,26.5c4.6,0,13.8-1.5,13.8-9.8c0-8.3-9.2-9.8-13.8-9.8H8.7v1.7h6.4v29H8.7v1.7h14.9v-1.7H17V26.5H23.6z
		 M17,8.6h6.5c6.9,0,11.8,3,11.8,8.1c0,5.1-4.9,8.1-11.8,8.1H17V8.6z"/>
	<path class="st0" d="M52.8,6.9h-8.2v1.7h5.1l-11.9,29h-4.9v1.7h12.8v-1.7h-5.9l3.9-9.6h15.6l4,9.6h-5.9v1.7h10.3v-1.7h-2.4
		L52.8,6.9z M44.4,26.3l7.1-17.5l7.1,17.5H44.4z"/>
	<path class="st0" d="M71.8,14.3c0-3.1,2.1-6.2,9-6.2c2.5,0,5.2,0.4,7.2,1v5.3h1.9V7.7c-2.7-0.8-6.1-1.4-9.3-1.4
		c-7.8,0-10.8,3.7-10.8,8c0,11.2,19.4,7.6,19.4,17.4c0,3.9-3.1,6.6-9.5,6.6c-2.8,0-6.3-0.5-8.7-1.2v-5.3h-1.8v6.7
		c3,1,7.1,1.6,10.6,1.6c7.3,0,11.4-3,11.4-8.3C91.2,20.3,71.8,23.7,71.8,14.3z"/>
	<polygon class="st0" points="122.9,14.9 122.9,6.9 94.5,6.9 94.5,14.9 96.4,14.9 96.4,8.6 107.7,8.6 107.7,37.7 101.9,37.7 
		101.9,39.4 115.5,39.4 115.5,37.7 109.7,37.7 109.7,8.6 121,8.6 121,14.9 	"/>
	<path class="st0" d="M225.8,11.9h4.1V7h-13.8l-8,21.5L200,7h-13.8v4.9h4.1l-0.8,22.6h-2.4h-1.6h-2.3L171.9,7h-13.4v4.9h4.5
		l-9.3,22.6h-3.9l1.3,3.2h0L138.5,6.9h-8.2v1.7h5.1l-11.9,29h-2.4v1.7h10.3v-1.7h-5.9l3.9-9.6h15.6l4,9.6h-5.9v1.7h8.7l0,0h12.3
		v-4.9h-4.3l1.7-4.4H175l1.7,4.4h-4.3v4.9h13.1h1.6h12.2v-4.9h-4l0.8-21.7l9.5,23.8h5.2l9.5-23.8l0.8,21.7h-4.1v4.9h13.8v-4.9h-4
		L225.8,11.9z M130.2,26.3l7.1-17.5l7.1,17.5H130.2z M163.4,25.2l4.8-12.2l4.9,12.2H163.4z"/>
	<path class="st0" d="M247.8,14l4.2-4.7l9.2,1.7l-9.8-5.6c0,0-1.2-4.5,2.3-5.5h-2.5c0,0-0.6-0.3-4.3,5.5l-10.6,4.8l7.6-1.5L247.8,14
		z"/>
	<path class="st0" d="M252.9,10.9l-5,5.4l-4.8-5.9l-7.6,1.6c-2.6,2.9-4.7,6.5-4.7,11.1c0,9.9,7.1,16.8,17.1,16.8
		c9.9,0,17.1-6.9,17.1-16.8c0-3.8-0.3-7-3.3-10.6L252.9,10.9z M247.8,34.9c-6.2,0-11.4-5.6-12.5-12.8c-0.9-5.8,2.8-8.1,5.7-8.4
		c1.3,0,2.6,0.3,3.6,1.5c2.9,3.5,3.2,8.8,3.2,8.8s1.6-11.6,8.7-10c2.3,1,3.8,2.6,3.8,6.6C260.3,27.9,253.9,34.9,247.8,34.9z"/>
	<path class="st0" d="M317.7,29.7v4.8h-10.8v-8.9h12.4v-4.9h-12.4v-8.8h10.6v4.6h5.8V7h-27.1v4.9h4.4v22.6h-3.9h-0.5h-3.5l-5-8.6
		c4.5-1.4,6.6-4.9,6.6-8.7c0-4.9-3.7-10.2-13.4-10.2h-15.9v4.9h4.4v22.6h-4.4v4.9h15.1v-4.9h-4.4v-7h5.9l6.8,11.9h7.8h0.5h26.8v-9.7
		H317.7z M281.1,22.7h-5.3V11.9h5.3c5.2,0,7,2.6,7,5.4C288.1,20.1,286.3,22.7,281.1,22.7z"/>
</g>
</svg>
