<?xml version="1.0" encoding="utf-8"?>
<!-- Generator: Adobe Illustrator 26.5.0, SVG Export Plug-In . SVG Version: 6.00 Build 0)  -->
<svg version="1.1" id="Layer_1" xmlns="http://www.w3.org/2000/svg" xmlns:xlink="http://www.w3.org/1999/xlink" x="0px" y="0px"
	 viewBox="0 0 248 134" style="enable-background:new 0 0 248 134;" xml:space="preserve">
<style type="text/css">
	.st0{fill:#CE1F45;}
	.st1{fill:#0C9347;}
</style>
<g>
	<path class="st0" d="M23.9,45.7h9.8c10.4,0,17.7-4.5,17.7-12.3S44,21.1,33.7,21.1h-9.8V45.7z M11.4,65.2H21V21.1h-9.6v-2.6h22.3
		c6.9,0,20.7,2.3,20.7,14.9S40.6,48.3,33.7,48.3h-9.8v16.9h9.8v2.6H11.4V65.2z"/>
	<path class="st0" d="M86.1,47.9L75.5,21.3L64.8,47.9H86.1z M47.6,65.2H55l17.8-44.1h-7.7v-2.6h12.2l18.8,46.7h3.6v2.6H84.3v-2.6
		h8.8l-5.9-14.6H63.8l-5.8,14.6h8.8v2.6H47.6V65.2z"/>
	<path class="st0" d="M101.9,66.3V56.2h2.8v8.1c3.6,1.1,8.8,1.9,13,1.9c9.6,0,14.2-4,14.2-10c0-15-29-9.5-29-26.5
		c0-6.6,4.5-12.2,16.1-12.2c4.7,0,9.8,0.9,13.8,2.1v10h-2.8v-8c-2.9-0.8-7-1.5-10.8-1.5c-10.4,0-13.5,4.7-13.5,9.5
		c0,14.2,29,9.1,29,26.6c0,8-6.2,12.5-17.1,12.5C112.6,68.7,106.3,67.8,101.9,66.3"/>
	<polygon class="st0" points="150.7,65.2 159.5,65.2 159.5,21.1 142.5,21.1 142.5,30.5 139.7,30.5 139.7,18.5 182.2,18.5 
		182.2,30.5 179.4,30.5 179.4,21.1 162.4,21.1 162.4,65.2 171.1,65.2 171.1,67.8 150.7,67.8 	"/>
	<path class="st0" d="M214.3,47.9l-10.6-26.6L193,47.9H214.3z M179.6,65.2h3.6L201,21.1h-7.7v-2.6h12.2l18.8,46.7h4.5v2.6h-16.4
		v-2.6h8.8l-5.9-14.6H192l-5.8,14.6h8.8v2.6h-15.4V65.2z"/>
	<path class="st1" d="M40.9,100.8l-6.1-15.6l-6,15.6H40.9z M11.7,112.6h4.9l11.6-28.8h-5.6v-6.2h16.9l14.1,35h4.9v6.2H40v-6.2h5.4
		l-2.2-5.6H26.4l-2.2,5.6h5.4v6.2H11.7V112.6z"/>
	<polygon class="st1" points="56.5,112.6 61.6,112.6 62.6,83.8 57.4,83.8 57.4,77.6 74.7,77.6 84.8,105 94.9,77.6 112.1,77.6 
		112.1,83.8 107,83.8 108,112.6 113.1,112.6 113.1,118.8 95.7,118.8 95.7,112.6 100.8,112.6 99.9,85 88,115.2 81.5,115.2 69.7,85 
		68.7,112.6 73.8,112.6 73.8,118.8 56.5,118.8 	"/>
	<path class="st1" d="M139.8,80.6l11.5,2.2l-12.2-7.1c0,0-1.6-5.8,2.8-7h-3.1c0,0-0.8-0.4-5.3,7l-13.3,6.1l9.6-1.9l4.9,6.6
		L139.8,80.6z"/>
	<path class="st0" d="M134.6,113.1c-7.7,0-14.3-7.2-15.7-16.3c-1.1-7.3,3.4-10.3,7.2-10.7c1.6-0.1,3.3,0.4,4.5,2
		c3.6,4.5,4,11.3,4,11.3s2-14.8,10.9-12.8c2.8,1.2,4.8,3.3,4.8,8.4C150.3,104.2,142.2,113.1,134.6,113.1 M151.9,84.7l-11-2.1
		l-6.3,6.9l-6-7.5l-9.5,2.1c-3.3,3.7-5.9,8.3-5.9,14.2c0,12.7,8.9,21.4,21.5,21.4c12.5,0,21.5-8.7,21.5-21.4
		C156.1,93.4,155.7,89.4,151.9,84.7"/>
	<path class="st1" d="M176.3,97.6c6.6,0,8.7-3.3,8.7-6.9c0-3.6-2.2-6.9-8.7-6.9h-6.6v13.8H176.3z M156.3,112.6h5.6V83.8h-5.6v-6.2
		h19.9c12.2,0,16.8,6.7,16.8,13c0,4.8-2.7,9.2-8.3,11l6.2,11h5.1v6.2h-10.4l-8.5-15.1h-7.4v8.9h5.6v6.2h-19V112.6z"/>
	<polygon class="st1" points="195.3,112.6 200.8,112.6 200.8,83.8 195.3,83.8 195.3,77.6 229.2,77.6 229.2,89.7 222,89.7 222,83.8 
		208.7,83.8 208.7,95 224.2,95 224.2,101.2 208.7,101.2 208.7,112.6 222.2,112.6 222.2,106.4 229.5,106.4 229.5,118.8 195.3,118.8 	
		"/>
</g>
</svg>
